<svg xmlns="http://www.w3.org/2000/svg" width="1180" height="610" viewBox="0 0 1180 610" role="img" aria-label="Ishan Ray Chaudhuri GitHub profile">
<defs><clipPath id="photo"><rect x="52" y="130" width="420" height="420" rx="14"/></clipPath><filter id="duo"><feColorMatrix type="matrix" values="0.33 0.33 0.33 0 0.08 0.33 0.33 0.33 0 0.03 0.33 0.33 0.33 0 0.04 0 0 0 1 0"/></filter></defs>
<rect width="1180" height="610" rx="18" fill="#0B0B0F"/><rect x="18" y="18" width="1144" height="574" rx="16" fill="#111116" stroke="#3B1118"/>
<rect x="42" y="42" width="1100" height="44" rx="10" fill="#09090C"/><circle cx="66" cy="64" r="6" fill="#FF5F56"/><circle cx="86" cy="64" r="6" fill="#FFBD2E"/><circle cx="106" cy="64" r="6" fill="#27C93F"/><text x="134" y="70" fill="#F5F5F5" font-size="14" font-family="ui-monospace,SFMono-Regular,Menlo,monospace">profile.sh --live</text>
<rect x="1000" y="52" width="112" height="24" rx="12" fill="#3A0D16"/><circle cx="1016" cy="64" r="4" fill="#C8102E"/><text x="1028" y="68" fill="#F5F5F5" font-size="12" font-family="ui-monospace,monospace">LIVE</text>
<text x="60" y="116" fill="#C8102E" font-size="13" font-family="ui-monospace,monospace">VISUAL.MAP</text><text x="504" y="116" fill="#C8102E" font-size="13" font-family="ui-monospace,monospace">SYSTEM.INFO</text>
<rect x="52" y="130" width="420" height="420" rx="14" fill="#09090C" stroke="#D4AF37" stroke-opacity="0.45"/><image x="52" y="130" width="420" height="420" href="https://avatars.githubusercontent.com/u/229475346?v=4" preserveAspectRatio="xMidYMid slice" clip-path="url(#photo)"/><rect x="52" y="130" width="420" height="420" rx="14" fill="none" stroke="#C8102E" stroke-width="2"/>
<g font-size="14" font-family="ui-monospace,SFMono-Regular,Menlo,monospace"><g fill="#A8A8B0"><text x="504" y="154">Subject</text><path d="M590 150 H850" stroke="#2B2024" stroke-dasharray="2 6"/><text x="864" y="154" fill="#F5F5F5" text-anchor="end">ISHAN RAY CHAUDHURI</text>
<text x="504" y="177">Role</text><path d="M590 173 H850" stroke="#2B2024" stroke-dasharray="2 6"/><text x="864" y="177" fill="#F5F5F5" text-anchor="end">COMPUTER SCIENCE STUDENT</text>
<text x="504" y="200">Origin</text><path d="M590 196 H850" stroke="#2B2024" stroke-dasharray="2 6"/><text x="864" y="200" fill="#F5F5F5" text-anchor="end">INDIA</text>
<text x="504" y="223">Education</text><path d="M590 219 H850" stroke="#2B2024" stroke-dasharray="2 6"/><text x="864" y="223" fill="#F5F5F5" text-anchor="end">VIT CHENNAI · B.TECH CSE</text>
<text x="504" y="246">Status</text><path d="M590 242 H850" stroke="#2B2024" stroke-dasharray="2 6"/><text x="864" y="246" fill="#F5F5F5" text-anchor="end">LEARNING + BUILDING + SHIPPING</text>
<text x="504" y="280">Core.Lang</text><path d="M590 276 H850" stroke="#2B2024" stroke-dasharray="2 6"/><text x="864" y="280" fill="#F5F5F5" text-anchor="end">C · C++ · PYTHON · JAVA · R</text>
<text x="504" y="303">Core.Data</text><path d="M590 299 H850" stroke="#2B2024" stroke-dasharray="2 6"/><text x="864" y="303" fill="#F5F5F5" text-anchor="end">NUMPY · PANDAS · MATLAB</text>
<text x="504" y="326">Core.Infra</text><path d="M590 322 H850" stroke="#2B2024" stroke-dasharray="2 6"/><text x="864" y="326" fill="#F5F5F5" text-anchor="end">DOCKER · WSL · CLOUD · DEVOPS</text>
<text x="504" y="349">Interests</text><path d="M590 345 H850" stroke="#2B2024" stroke-dasharray="2 6"/><text x="864" y="349" fill="#F5F5F5" text-anchor="end">AI/ML · SOFTWARE · QUANT · AUTOMATION</text></g>
<rect x="504" y="378" width="350" height="34" rx="17" fill="#C8102E" fill-opacity="0.14" stroke="#D4AF37" stroke-opacity="0.5"/><text x="679" y="400" fill="#D4AF37" font-size="14" text-anchor="middle">@ishanraychaudhuri2025</text>
<text x="504" y="448" fill="#C8102E" font-size="13">BUILD TARGET</text><text x="504" y="472" fill="#F5F5F5" font-size="15">SOFTWARE · AI/ML · CLOUD · DEVOPS</text><text x="504" y="512" fill="#7F7F88" font-size="12">theme-aware · generated from your profile photo</text><text x="504" y="535" fill="#D4AF37" font-size="11">RED · BLACK · WHITE · GOLD</text></g></svg>