<svg xmlns="http://www.w3.org/2000/svg" width="1180" height="670" viewBox="0 0 1180 670" role="img" aria-label="GitHub activity, stats, languages and contribution snake"><defs><clipPath id="frameClip"><rect x="1" y="1" width="1178" height="668" rx="16"/></clipPath></defs><rect x="1" y="1" width="1178" height="668" rx="16" fill="#06080B" stroke="#4A0E18" stroke-width="2"/><g clip-path="url(#frameClip)"><g transform="translate(16 16) scale(0.97288136)">
<defs>
  <clipPath id="outer"><rect width="1180" height="195" rx="12"/></clipPath>
  <mask id="ringMask"><rect width="1180" height="195" fill="white"/><ellipse cx="590" cy="32" rx="13" ry="18" fill="black"/></mask>
</defs>
<g clip-path="url(#outer)">
  <rect x="0.5" y="0.5" width="1179" height="194" rx="12" fill="#0B0B0F" stroke="#4A0E18"/>
  <line x1="393.33" y1="28" x2="393.33" y2="170" stroke="#C8102E" stroke-width="1"/>
  <line x1="786.67" y1="28" x2="786.67" y2="170" stroke="#C8102E" stroke-width="1"/>

  <g transform="translate(196.67 34) scale(0.78)">
  <defs>
    <linearGradient id="calendarRed" x1="0" y1="0" x2="1" y2="1">
      <stop offset="0" stop-color="#FF4A3D"/>
      <stop offset="0.55" stop-color="#C8102E"/>
      <stop offset="1" stop-color="#8F0B20"/>
    </linearGradient>
  </defs>
  <ellipse cx="0" cy="29" rx="25" ry="4" fill="#000000" opacity="0.12"/>
  <rect x="-28" y="-18" width="56" height="48" rx="7" fill="url(#calendarRed)"/>
  <rect x="-28" y="-18" width="56" height="16" rx="7" fill="#FF4038"/>
  <rect x="-28" y="-10" width="56" height="8" fill="#E5232E"/>
  <rect x="-23" y="-1" width="46" height="26" rx="3" fill="#FFFFFF"/>
  <g fill="none" stroke="#E5232E" stroke-width="1.7">
    <path d="M-12 -6 V-20"/><path d="M0 -6 V-20"/><path d="M12 -6 V-20"/>
  </g>
  <g fill="#E5232E">
    <circle cx="-19" cy="5" r="1.7"/><circle cx="-7" cy="5" r="1.7"/><circle cx="5" cy="5" r="1.7"/><circle cx="17" cy="5" r="1.7"/>
    <circle cx="-19" cy="14" r="1.7"/><circle cx="-7" cy="14" r="1.7"/><circle cx="5" cy="14" r="1.7"/><circle cx="17" cy="14" r="1.7"/>
  </g>
  <g fill="#FFFFFF">
    <circle cx="-12" cy="-18" r="5"/><circle cx="0" cy="-18" r="5"/><circle cx="12" cy="-18" r="5"/>
  </g>
  <g fill="#E5232E">
    <circle cx="-12" cy="-18" r="2"/><circle cx="0" cy="-18" r="2"/><circle cx="12" cy="-18" r="2"/>
  </g>
</g>
  <text x="196.67" y="94" text-anchor="middle" fill="#C8102E" font-family="Segoe UI,Ubuntu,sans-serif" font-size="30" font-weight="700">17</text>
  <text x="196.67" y="124" text-anchor="middle" fill="#C8102E" font-family="Segoe UI,Ubuntu,sans-serif" font-size="14" font-weight="700">Active Days</text>
  <text x="196.67" y="148" text-anchor="middle" fill="#777B85" font-family="Segoe UI,Ubuntu,sans-serif" font-size="12">last 400 days</text>
  <rect x="172" y="158" width="49" height="4" rx="2" fill="#C8102E"/>

  <g mask="url(#ringMask)"><circle cx="590" cy="71" r="40" fill="none" stroke="#C8102E" stroke-width="5"/></g>
  <g transform="translate(590 19.5)" stroke-opacity="0"><path d="M 1.5 0.67 C 1.5 0.67 2.24 3.32 2.24 5.47 C 2.24 7.53 0.89 9.2 -1.17 9.2 C -3.23 9.2 -4.79 7.53 -4.79 5.47 L -4.76 5.11 C -6.78 7.51 -8 10.62 -8 13.99 C -8 18.41 -4.42 22 0 22 C 4.42 22 8 18.41 8 13.99 C 8 8.6 5.41 3.79 1.5 0.67 Z M -0.29 19 C -2.07 19 -3.51 17.6 -3.51 15.86 C -3.51 14.24 -2.46 13.1 -0.7 12.74 C 1.07 12.38 2.9 11.53 3.92 10.16 C 4.31 11.45 4.51 12.81 4.51 14.2 C 4.51 16.85 2.36 19 -0.29 19 Z" fill="#D4AF37"/></g>
  <text x="590" y="80" text-anchor="middle" fill="#FFFFFF" font-family="Segoe UI,Ubuntu,sans-serif" font-weight="700" font-size="28">0</text>
  <text x="590" y="140" text-anchor="middle" fill="#D4AF37" font-family="Segoe UI,Ubuntu,sans-serif" font-weight="700" font-size="14">Current Streak</text>
  <text x="590" y="166" text-anchor="middle" fill="#777B85" font-family="Segoe UI,Ubuntu,sans-serif" font-weight="400" font-size="12">no active streak</text>

  <g transform="translate(983.33 34) scale(0.78)">
  <ellipse cx="0" cy="29" rx="27" ry="4" fill="#000000" opacity="0.12"/>
  <path d="M-10 -20 H10 V-3 C10 7 5 14 0 17 C-5 14 -10 7 -10 -3 Z" fill="#D4AF37"/>
  <path d="M-10 -15 H-22 V-5 C-22 6 -15 13 -7 13 V7 C-12 6 -15 2 -15 -4 H-10 Z" fill="#D4AF37"/>
  <path d="M10 -15 H22 V-5 C22 6 15 13 7 13 V7 C12 6 15 2 15 -4 H10 Z" fill="#D4AF37"/>
  <path d="M-3 15 H3 V23 H-3 Z" fill="#D4AF37"/>
  <rect x="-18" y="22" width="36" height="8" rx="3" fill="#D4AF37"/>
</g>
  <text x="983.33" y="94" text-anchor="middle" fill="#D4AF37" font-family="Segoe UI,Ubuntu,sans-serif" font-size="30" font-weight="700">5</text>
  <text x="983.33" y="124" text-anchor="middle" fill="#D4AF37" font-family="Segoe UI,Ubuntu,sans-serif" font-size="14" font-weight="700">Longest Streak</text>
  <text x="983.33" y="148" text-anchor="middle" fill="#777B85" font-family="Segoe UI,Ubuntu,sans-serif" font-size="12">Sep 1 - 5</text>
  <rect x="958" y="158" width="51" height="4" rx="2" fill="#D4AF37"/>
</g>
</g><g transform="translate(26 210) scale(1.1 1)"><rect width="500" height="220" rx="14" fill="#0B0B0F"/><rect x="1" y="1" width="498" height="218" rx="13" fill="#111116" stroke="#3B1118"/><text x="24" y="32" fill="#C8102E" font-size="13" font-weight="700" font-family="ui-monospace,SFMono-Regular,Menlo,monospace">GITHUB STATS</text><path d="M150 28 H476" stroke="#3B1118" stroke-dasharray="2 7"/><g transform="translate(31 65) scale(0.55)"><path d="M-8 -4.5 H-1.5 L0 -3 H8 V6 H-8 Z" fill="none" stroke="#C8102E" stroke-width="1.8" stroke-linecap="round" stroke-linejoin="round"/><path d="M-5 0 H5" fill="none" stroke="#C8102E" stroke-width="1.8" stroke-linecap="round" stroke-linejoin="round"/><path d="M-5 3 H3" fill="none" stroke="#C8102E" stroke-width="1.8" stroke-linecap="round" stroke-linejoin="round"/></g><text x="42" y="68" fill="#A8A8B0" font-size="9" font-family="ui-monospace,SFMono-Regular,Menlo,monospace" font-weight="600">Repositories</text><text x="42" y="89" fill="#F5F5F5" font-size="17" font-weight="700" font-family="ui-monospace,SFMono-Regular,Menlo,monospace">2</text><g transform="translate(267 65) scale(0.55)"><path d="M0 -8 L2.1 -2.6 L7.8 -2.1 L3.4 1.5 L4.8 7.4 L0 4.3 L-4.8 7.4 L-3.4 1.5 L-7.8 -2.1 L-2.1 -2.6 Z" fill="none" stroke="#C8102E" stroke-width="1.8" stroke-linecap="round" stroke-linejoin="round"/></g><text x="278" y="68" fill="#A8A8B0" font-size="9" font-family="ui-monospace,SFMono-Regular,Menlo,monospace" font-weight="600">Stars</text><text x="278" y="89" fill="#F5F5F5" font-size="17" font-weight="700" font-family="ui-monospace,SFMono-Regular,Menlo,monospace">0</text><g transform="translate(31 114) scale(0.55)"><circle cx="-2.7" cy="-2.9" r="3.2" fill="none" stroke="#C8102E" stroke-width="1.8" stroke-linecap="round" stroke-linejoin="round"/><path d="M-8.5 6.5 C-7.7 2.8 -5.7 1.1 -2.7 1.1 C0.2 1.1 2.3 2.8 3.1 6.5" fill="none" stroke="#C8102E" stroke-width="1.8" stroke-linecap="round" stroke-linejoin="round"/><circle cx="5.2" cy="-1.4" r="2.3" fill="none" stroke="#C8102E" stroke-width="1.8" stroke-linecap="round" stroke-linejoin="round"/><path d="M3.6 2.4 C6 2.5 7.4 3.7 8.1 5.8" fill="none" stroke="#C8102E" stroke-width="1.8" stroke-linecap="round" stroke-linejoin="round"/></g><text x="42" y="117" fill="#A8A8B0" font-size="9" font-family="ui-monospace,SFMono-Regular,Menlo,monospace" font-weight="600">Followers</text><text x="42" y="138" fill="#F5F5F5" font-size="17" font-weight="700" font-family="ui-monospace,SFMono-Regular,Menlo,monospace">5</text><g transform="translate(267 114) scale(0.55)"><path d="M-8 0 H-3 M3 0 H8" fill="none" stroke="#C8102E" stroke-width="1.8" stroke-linecap="round" stroke-linejoin="round"/><circle cx="0" cy="0" r="3.4" fill="#C8102E" stroke="none"/></g><text x="278" y="117" fill="#A8A8B0" font-size="9" font-family="ui-monospace,SFMono-Regular,Menlo,monospace" font-weight="600">Commits</text><text x="278" y="138" fill="#F5F5F5" font-size="17" font-weight="700" font-family="ui-monospace,SFMono-Regular,Menlo,monospace">459</text><g transform="translate(31 163) scale(0.55)"><circle cx="-5.5" cy="-6" r="2.15" fill="none" stroke="#C8102E" stroke-width="1.8" stroke-linecap="round" stroke-linejoin="round"/><circle cx="-5.5" cy="6" r="2.15" fill="none" stroke="#C8102E" stroke-width="1.8" stroke-linecap="round" stroke-linejoin="round"/><circle cx="5.5" cy="-6" r="2.15" fill="none" stroke="#C8102E" stroke-width="1.8" stroke-linecap="round" stroke-linejoin="round"/><path d="M-5.5 -3.85 V3.85" fill="none" stroke="#C8102E" stroke-width="1.8" stroke-linecap="round" stroke-linejoin="round"/><path d="M-3.2 6 C2.4 6 5.5 3 5.5 -2.2 V-3.85" fill="none" stroke="#C8102E" stroke-width="1.8" stroke-linecap="round" stroke-linejoin="round"/></g><text x="42" y="166" fill="#A8A8B0" font-size="9" font-family="ui-monospace,SFMono-Regular,Menlo,monospace" font-weight="600">Pull Requests</text><text x="42" y="187" fill="#F5F5F5" font-size="17" font-weight="700" font-family="ui-monospace,SFMono-Regular,Menlo,monospace">0</text><g transform="translate(267 163) scale(0.55)"><circle cx="0" cy="0" r="7.2" fill="none" stroke="#C8102E" stroke-width="1.8" stroke-linecap="round" stroke-linejoin="round"/><path d="M0 -3.6 V1.2" fill="none" stroke="#C8102E" stroke-width="1.8" stroke-linecap="round" stroke-linejoin="round"/><circle cx="0" cy="4.2" r="0.75" fill="#C8102E" stroke="none"/></g><text x="278" y="166" fill="#A8A8B0" font-size="9" font-family="ui-monospace,SFMono-Regular,Menlo,monospace" font-weight="600">Issues</text><text x="278" y="187" fill="#F5F5F5" font-size="17" font-weight="700" font-family="ui-monospace,SFMono-Regular,Menlo,monospace">0</text><text x="24" y="207" fill="#D4AF37" font-size="9" font-family="ui-monospace,SFMono-Regular,Menlo,monospace">generated by GitHub Actions</text></g><g transform="translate(604 210) scale(1.1 1)"><rect width="500" height="220" rx="14" fill="#0B0B0F"/><rect x="1" y="1" width="498" height="218" rx="13" fill="#111116" stroke="#3B1118"/><text x="24" y="32" fill="#C8102E" font-size="13" font-weight="700" font-family="ui-monospace,SFMono-Regular,Menlo,monospace">TOP LANGUAGES</text><path d="M150 28 H476" stroke="#3B1118" stroke-dasharray="2 7"/><rect x="24.0" y="54" width="452.0" height="11" fill="#C8102E"/><circle cx="28" cy="84.5" r="3.6" fill="#C8102E"/><text x="42" y="88" fill="#F5F5F5" font-size="11" font-family="ui-monospace,SFMono-Regular,Menlo,monospace">Python</text><text x="450" y="88" text-anchor="end" fill="#A8A8B0" font-size="11" font-family="ui-monospace,SFMono-Regular,Menlo,monospace">100.0%</text><text x="24" y="211" fill="#D4AF37" font-size="9" font-family="ui-monospace,SFMono-Regular,Menlo,monospace">calculated from GitHub language bytes</text></g><g transform="translate(46.50909091 486.33333333) scale(1.28181818 0.88541667)"><desc>Generated with https://github.com/Platane/snk</desc><style>:root{--cb:#1b1f230a;--cs:#002366;--ce:#26262E;--c0:#26262E;--c1:#5A242D;--c2:#8F1830;--c3:#C8102E;--c4:#D4AF37}.c{shape-rendering:geometricPrecision;fill:var(--ce);stroke-width:1px;stroke:var(--cb);animation:none 14300ms linear infinite;width:12px;height:12px}@keyframes c0{6.98%{fill:var(--c1)}7%,100%{fill:var(--ce)}}.c.c0{fill:var(--c1);animation-name:c0}@keyframes c1{28.66%{fill:var(--c1)}28.68%,100%{fill:var(--ce)}}.c.c1{fill:var(--c1);animation-name:c1}@keyframes c2{37.75%{fill:var(--c1)}37.77%,100%{fill:var(--ce)}}.c.c2{fill:var(--c1);animation-name:c2}@keyframes c3{55.23%{fill:var(--c2)}55.25%,100%{fill:var(--ce)}}.c.c3{fill:var(--c2);animation-name:c3}@keyframes c4{44.75%{fill:var(--c1)}44.77%,100%{fill:var(--ce)}}.c.c4{fill:var(--c1);animation-name:c4}@keyframes c5{44.05%{fill:var(--c1)}44.07%,100%{fill:var(--ce)}}.c.c5{fill:var(--c1);animation-name:c5}@keyframes c6{51.74%{fill:var(--c2)}51.76%,100%{fill:var(--ce)}}.c.c6{fill:var(--c2);animation-name:c6}@keyframes c7{39.85%{fill:var(--c1)}39.87%,100%{fill:var(--ce)}}.c.c7{fill:var(--c1);animation-name:c7}@keyframes c8{57.33%{fill:var(--c4)}57.35%,100%{fill:var(--ce)}}.c.c8{fill:var(--c4);animation-name:c8}@keyframes c9{48.94%{fill:var(--c2)}48.96%,100%{fill:var(--ce)}}.c.c9{fill:var(--c2);animation-name:c9}@keyframes ca{49.64%{fill:var(--c2)}49.66%,100%{fill:var(--ce)}}.c.ca{fill:var(--c2);animation-name:ca}@keyframes cb{43.35%{fill:var(--c1)}43.37%,100%{fill:var(--ce)}}.c.cb{fill:var(--c1);animation-name:cb}@keyframes cc{51.04%{fill:var(--c2)}51.06%,100%{fill:var(--ce)}}.c.cc{fill:var(--c2);animation-name:cc}@keyframes cd{47.54%{fill:var(--c1)}47.56%,100%{fill:var(--ce)}}.c.cd{fill:var(--c1);animation-name:cd}@keyframes ce{48.24%{fill:var(--c1)}48.26%,100%{fill:var(--ce)}}.c.ce{fill:var(--c1);animation-name:ce}@keyframes cf{61.53%{fill:var(--c4)}61.55%,100%{fill:var(--ce)}}.c.cf{fill:var(--c4);animation-name:cf}@keyframes cg{41.95%{fill:var(--c1)}41.97%,100%{fill:var(--ce)}}.c.cg{fill:var(--c1);animation-name:cg}@keyframes ch{41.25%{fill:var(--c1)}41.27%,100%{fill:var(--ce)}}.c.ch{fill:var(--c1);animation-name:ch}.u{transform-origin:0 0;transform:scale(0,1);animation:none linear 14300ms infinite}@keyframes u0{6.98%{transform:scale(0.000,1)}7%,28.66%{transform:scale(0.091,1)}28.68%,37.75%{transform:scale(0.182,1)}37.77%,39.85%{transform:scale(0.273,1)}39.87%,41.25%{transform:scale(0.364,1)}41.27%,41.95%{transform:scale(0.455,1)}41.97%,43.35%{transform:scale(0.545,1)}43.37%,44.05%{transform:scale(0.636,1)}44.07%,44.75%{transform:scale(0.727,1)}44.77%,47.54%{transform:scale(0.818,1)}47.56%,48.24%{transform:scale(0.909,1)}48.26%,100%{transform:scale(1.000,1)}}.u.u0{fill:var(--c1);animation-name:u0;transform-origin:0.0px 0}@keyframes u1{48.94%{transform:scale(0.000,1)}48.96%,49.64%{transform:scale(0.200,1)}49.66%,51.04%{transform:scale(0.400,1)}51.06%,51.74%{transform:scale(0.600,1)}51.76%,55.23%{transform:scale(0.800,1)}55.25%,100%{transform:scale(1.000,1)}}.u.u1{fill:var(--c2);animation-name:u1;transform-origin:518.2px 0}@keyframes u2{57.33%{transform:scale(0.000,1)}57.35%,61.53%{transform:scale(0.500,1)}61.55%,100%{transform:scale(1.000,1)}}.u.u2{fill:var(--c4);animation-name:u2;transform-origin:753.8px 0}.s{shape-rendering:geometricPrecision;fill:var(--cs);animation:none linear 14300ms infinite}@keyframes s0{0%,99.3%{transform:translate(0px,-16px)}0.7%{transform:translate(0px,0px)}4.2%{transform:translate(80px,0px)}6.99%{transform:translate(80px,64px)}27.27%{transform:translate(544px,64px)}28.67%{transform:translate(544px,96px)}36.36%{transform:translate(720px,96px)}37.06%{transform:translate(720px,80px)}41.26%{transform:translate(816px,80px)}42.66%{transform:translate(816px,48px)}44.06%{transform:translate(784px,48px)}46.15%{transform:translate(784px,0px)}47.55%{transform:translate(816px,0px)}48.25%{transform:translate(816px,16px)}48.95%{transform:translate(800px,16px)}51.05%{transform:translate(800px,64px)}53.85%{transform:translate(736px,64px)}55.24%{transform:translate(736px,96px)}58.74%{transform:translate(816px,96px)}61.54%{transform:translate(816px,32px)}95.1%{transform:translate(48px,32px)}97.2%{transform:translate(48px,-16px)}}.s.s0{transform:translate(0px,-16px);animation-name:s0}@keyframes s1{0%,99.3%{transform:translate(16px,-16px)}0.7%{transform:translate(0px,-16px)}1.4%{transform:translate(0px,0px)}4.9%{transform:translate(80px,0px)}7.69%{transform:translate(80px,64px)}27.97%{transform:translate(544px,64px)}29.37%{transform:translate(544px,96px)}37.06%{transform:translate(720px,96px)}37.76%{transform:translate(720px,80px)}41.96%{transform:translate(816px,80px)}43.36%{transform:translate(816px,48px)}44.76%{transform:translate(784px,48px)}46.85%{transform:translate(784px,0px)}48.25%{transform:translate(816px,0px)}48.95%{transform:translate(816px,16px)}49.65%{transform:translate(800px,16px)}51.75%{transform:translate(800px,64px)}54.55%{transform:translate(736px,64px)}55.94%{transform:translate(736px,96px)}59.44%{transform:translate(816px,96px)}62.24%{transform:translate(816px,32px)}95.8%{transform:translate(48px,32px)}97.9%{transform:translate(48px,-16px)}}.s.s1{transform:translate(16px,-16px);animation-name:s1}@keyframes s2{0%,99.3%{transform:translate(32px,-16px)}1.4%{transform:translate(0px,-16px)}2.1%{transform:translate(0px,0px)}5.59%{transform:translate(80px,0px)}8.39%{transform:translate(80px,64px)}28.67%{transform:translate(544px,64px)}30.07%{transform:translate(544px,96px)}37.76%{transform:translate(720px,96px)}38.46%{transform:translate(720px,80px)}42.66%{transform:translate(816px,80px)}44.06%{transform:translate(816px,48px)}45.45%{transform:translate(784px,48px)}47.55%{transform:translate(784px,0px)}48.95%{transform:translate(816px,0px)}49.65%{transform:translate(816px,16px)}50.35%{transform:translate(800px,16px)}52.45%{transform:translate(800px,64px)}55.24%{transform:translate(736px,64px)}56.64%{transform:translate(736px,96px)}60.14%{transform:translate(816px,96px)}62.94%{transform:translate(816px,32px)}96.5%{transform:translate(48px,32px)}98.6%{transform:translate(48px,-16px)}}.s.s2{transform:translate(32px,-16px);animation-name:s2}@keyframes s3{0%,99.3%{transform:translate(48px,-16px)}2.1%{transform:translate(0px,-16px)}2.8%{transform:translate(0px,0px)}6.29%{transform:translate(80px,0px)}9.09%{transform:translate(80px,64px)}29.37%{transform:translate(544px,64px)}30.77%{transform:translate(544px,96px)}38.46%{transform:translate(720px,96px)}39.16%{transform:translate(720px,80px)}43.36%{transform:translate(816px,80px)}44.76%{transform:translate(816px,48px)}46.15%{transform:translate(784px,48px)}48.25%{transform:translate(784px,0px)}49.65%{transform:translate(816px,0px)}50.35%{transform:translate(816px,16px)}51.05%{transform:translate(800px,16px)}53.15%{transform:translate(800px,64px)}55.94%{transform:translate(736px,64px)}57.34%{transform:translate(736px,96px)}60.84%{transform:translate(816px,96px)}63.64%{transform:translate(816px,32px)}97.2%{transform:translate(48px,32px)}}.s.s3{transform:translate(48px,-16px);animation-name:s3}</style><rect class="c" x="2" y="2" rx="2" ry="2"/><rect class="c" x="2" y="18" rx="2" ry="2"/><rect class="c" x="2" y="34" rx="2" ry="2"/><rect class="c" x="2" y="50" rx="2" ry="2"/><rect class="c" x="2" y="66" rx="2" ry="2"/><rect class="c" x="2" y="82" rx="2" ry="2"/><rect class="c" x="2" y="98" rx="2" ry="2"/><rect class="c" x="18" y="2" rx="2" ry="2"/><rect class="c" x="18" y="18" rx="2" ry="2"/><rect class="c" x="18" y="34" rx="2" ry="2"/><rect class="c" x="18" y="50" rx="2" ry="2"/><rect class="c" x="18" y="66" rx="2" ry="2"/><rect class="c" x="18" y="82" rx="2" ry="2"/><rect class="c" x="18" y="98" rx="2" ry="2"/><rect class="c" x="34" y="2" rx="2" ry="2"/><rect class="c" x="34" y="18" rx="2" ry="2"/><rect class="c" x="34" y="34" rx="2" ry="2"/><rect class="c" x="34" y="50" rx="2" ry="2"/><rect class="c" x="34" y="66" rx="2" ry="2"/><rect class="c" x="34" y="82" rx="2" ry="2"/><rect class="c" x="34" y="98" rx="2" ry="2"/><rect class="c" x="50" y="2" rx="2" ry="2"/><rect class="c" x="50" y="18" rx="2" ry="2"/><rect class="c" x="50" y="34" rx="2" ry="2"/><rect class="c" x="50" y="50" rx="2" ry="2"/><rect class="c" x="50" y="66" rx="2" ry="2"/><rect class="c" x="50" y="82" rx="2" ry="2"/><rect class="c" x="50" y="98" rx="2" ry="2"/><rect class="c" x="66" y="2" rx="2" ry="2"/><rect class="c" x="66" y="18" rx="2" ry="2"/><rect class="c" x="66" y="34" rx="2" ry="2"/><rect class="c" x="66" y="50" rx="2" ry="2"/><rect class="c" x="66" y="66" rx="2" ry="2"/><rect class="c" x="66" y="82" rx="2" ry="2"/><rect class="c" x="66" y="98" rx="2" ry="2"/><rect class="c" x="82" y="2" rx="2" ry="2"/><rect class="c" x="82" y="18" rx="2" ry="2"/><rect class="c" x="82" y="34" rx="2" ry="2"/><rect class="c" x="82" y="50" rx="2" ry="2"/><rect class="c c0" x="82" y="66" rx="2" ry="2"/><rect class="c" x="82" y="82" rx="2" ry="2"/><rect class="c" x="82" y="98" rx="2" ry="2"/><rect class="c" x="98" y="2" rx="2" ry="2"/><rect class="c" x="98" y="18" rx="2" ry="2"/><rect class="c" x="98" y="34" rx="2" ry="2"/><rect class="c" x="98" y="50" rx="2" ry="2"/><rect class="c" x="98" y="66" rx="2" ry="2"/><rect class="c" x="98" y="82" rx="2" ry="2"/><rect class="c" x="98" y="98" rx="2" ry="2"/><rect class="c" x="114" y="2" rx="2" ry="2"/><rect class="c" x="114" y="18" rx="2" ry="2"/><rect class="c" x="114" y="34" rx="2" ry="2"/><rect class="c" x="114" y="50" rx="2" ry="2"/><rect class="c" x="114" y="66" rx="2" ry="2"/><rect class="c" x="114" y="82" rx="2" ry="2"/><rect class="c" x="114" y="98" rx="2" ry="2"/><rect class="c" x="130" y="2" rx="2" ry="2"/><rect class="c" x="130" y="18" rx="2" ry="2"/><rect class="c" x="130" y="34" rx="2" ry="2"/><rect class="c" x="130" y="50" rx="2" ry="2"/><rect class="c" x="130" y="66" rx="2" ry="2"/><rect class="c" x="130" y="82" rx="2" ry="2"/><rect class="c" x="130" y="98" rx="2" ry="2"/><rect class="c" x="146" y="2" rx="2" ry="2"/><rect class="c" x="146" y="18" rx="2" ry="2"/><rect class="c" x="146" y="34" rx="2" ry="2"/><rect class="c" x="146" y="50" rx="2" ry="2"/><rect class="c" x="146" y="66" rx="2" ry="2"/><rect class="c" x="146" y="82" rx="2" ry="2"/><rect class="c" x="146" y="98" rx="2" ry="2"/><rect class="c" x="162" y="2" rx="2" ry="2"/><rect class="c" x="162" y="18" rx="2" ry="2"/><rect class="c" x="162" y="34" rx="2" ry="2"/><rect class="c" x="162" y="50" rx="2" ry="2"/><rect class="c" x="162" y="66" rx="2" ry="2"/><rect class="c" x="162" y="82" rx="2" ry="2"/><rect class="c" x="162" y="98" rx="2" ry="2"/><rect class="c" x="178" y="2" rx="2" ry="2"/><rect class="c" x="178" y="18" rx="2" ry="2"/><rect class="c" x="178" y="34" rx="2" ry="2"/><rect class="c" x="178" y="50" rx="2" ry="2"/><rect class="c" x="178" y="66" rx="2" ry="2"/><rect class="c" x="178" y="82" rx="2" ry="2"/><rect class="c" x="178" y="98" rx="2" ry="2"/><rect class="c" x="194" y="2" rx="2" ry="2"/><rect class="c" x="194" y="18" rx="2" ry="2"/><rect class="c" x="194" y="34" rx="2" ry="2"/><rect class="c" x="194" y="50" rx="2" ry="2"/><rect class="c" x="194" y="66" rx="2" ry="2"/><rect class="c" x="194" y="82" rx="2" ry="2"/><rect class="c" x="194" y="98" rx="2" ry="2"/><rect class="c" x="210" y="2" rx="2" ry="2"/><rect class="c" x="210" y="18" rx="2" ry="2"/><rect class="c" x="210" y="34" rx="2" ry="2"/><rect class="c" x="210" y="50" rx="2" ry="2"/><rect class="c" x="210" y="66" rx="2" ry="2"/><rect class="c" x="210" y="82" rx="2" ry="2"/><rect class="c" x="210" y="98" rx="2" ry="2"/><rect class="c" x="226" y="2" rx="2" ry="2"/><rect class="c" x="226" y="18" rx="2" ry="2"/><rect class="c" x="226" y="34" rx="2" ry="2"/><rect class="c" x="226" y="50" rx="2" ry="2"/><rect class="c" x="226" y="66" rx="2" ry="2"/><rect class="c" x="226" y="82" rx="2" ry="2"/><rect class="c" x="226" y="98" rx="2" ry="2"/><rect class="c" x="242" y="2" rx="2" ry="2"/><rect class="c" x="242" y="18" rx="2" ry="2"/><rect class="c" x="242" y="34" rx="2" ry="2"/><rect class="c" x="242" y="50" rx="2" ry="2"/><rect class="c" x="242" y="66" rx="2" ry="2"/><rect class="c" x="242" y="82" rx="2" ry="2"/><rect class="c" x="242" y="98" rx="2" ry="2"/><rect class="c" x="258" y="2" rx="2" ry="2"/><rect class="c" x="258" y="18" rx="2" ry="2"/><rect class="c" x="258" y="34" rx="2" ry="2"/><rect class="c" x="258" y="50" rx="2" ry="2"/><rect class="c" x="258" y="66" rx="2" ry="2"/><rect class="c" x="258" y="82" rx="2" ry="2"/><rect class="c" x="258" y="98" rx="2" ry="2"/><rect class="c" x="274" y="2" rx="2" ry="2"/><rect class="c" x="274" y="18" rx="2" ry="2"/><rect class="c" x="274" y="34" rx="2" ry="2"/><rect class="c" x="274" y="50" rx="2" ry="2"/><rect class="c" x="274" y="66" rx="2" ry="2"/><rect class="c" x="274" y="82" rx="2" ry="2"/><rect class="c" x="274" y="98" rx="2" ry="2"/><rect class="c" x="290" y="2" rx="2" ry="2"/><rect class="c" x="290" y="18" rx="2" ry="2"/><rect class="c" x="290" y="34" rx="2" ry="2"/><rect class="c" x="290" y="50" rx="2" ry="2"/><rect class="c" x="290" y="66" rx="2" ry="2"/><rect class="c" x="290" y="82" rx="2" ry="2"/><rect class="c" x="290" y="98" rx="2" ry="2"/><rect class="c" x="306" y="2" rx="2" ry="2"/><rect class="c" x="306" y="18" rx="2" ry="2"/><rect class="c" x="306" y="34" rx="2" ry="2"/><rect class="c" x="306" y="50" rx="2" ry="2"/><rect class="c" x="306" y="66" rx="2" ry="2"/><rect class="c" x="306" y="82" rx="2" ry="2"/><rect class="c" x="306" y="98" rx="2" ry="2"/><rect class="c" x="322" y="2" rx="2" ry="2"/><rect class="c" x="322" y="18" rx="2" ry="2"/><rect class="c" x="322" y="34" rx="2" ry="2"/><rect class="c" x="322" y="50" rx="2" ry="2"/><rect class="c" x="322" y="66" rx="2" ry="2"/><rect class="c" x="322" y="82" rx="2" ry="2"/><rect class="c" x="322" y="98" rx="2" ry="2"/><rect class="c" x="338" y="2" rx="2" ry="2"/><rect class="c" x="338" y="18" rx="2" ry="2"/><rect class="c" x="338" y="34" rx="2" ry="2"/><rect class="c" x="338" y="50" rx="2" ry="2"/><rect class="c" x="338" y="66" rx="2" ry="2"/><rect class="c" x="338" y="82" rx="2" ry="2"/><rect class="c" x="338" y="98" rx="2" ry="2"/><rect class="c" x="354" y="2" rx="2" ry="2"/><rect class="c" x="354" y="18" rx="2" ry="2"/><rect class="c" x="354" y="34" rx="2" ry="2"/><rect class="c" x="354" y="50" rx="2" ry="2"/><rect class="c" x="354" y="66" rx="2" ry="2"/><rect class="c" x="354" y="82" rx="2" ry="2"/><rect class="c" x="354" y="98" rx="2" ry="2"/><rect class="c" x="370" y="2" rx="2" ry="2"/><rect class="c" x="370" y="18" rx="2" ry="2"/><rect class="c" x="370" y="34" rx="2" ry="2"/><rect class="c" x="370" y="50" rx="2" ry="2"/><rect class="c" x="370" y="66" rx="2" ry="2"/><rect class="c" x="370" y="82" rx="2" ry="2"/><rect class="c" x="370" y="98" rx="2" ry="2"/><rect class="c" x="386" y="2" rx="2" ry="2"/><rect class="c" x="386" y="18" rx="2" ry="2"/><rect class="c" x="386" y="34" rx="2" ry="2"/><rect class="c" x="386" y="50" rx="2" ry="2"/><rect class="c" x="386" y="66" rx="2" ry="2"/><rect class="c" x="386" y="82" rx="2" ry="2"/><rect class="c" x="386" y="98" rx="2" ry="2"/><rect class="c" x="402" y="2" rx="2" ry="2"/><rect class="c" x="402" y="18" rx="2" ry="2"/><rect class="c" x="402" y="34" rx="2" ry="2"/><rect class="c" x="402" y="50" rx="2" ry="2"/><rect class="c" x="402" y="66" rx="2" ry="2"/><rect class="c" x="402" y="82" rx="2" ry="2"/><rect class="c" x="402" y="98" rx="2" ry="2"/><rect class="c" x="418" y="2" rx="2" ry="2"/><rect class="c" x="418" y="18" rx="2" ry="2"/><rect class="c" x="418" y="34" rx="2" ry="2"/><rect class="c" x="418" y="50" rx="2" ry="2"/><rect class="c" x="418" y="66" rx="2" ry="2"/><rect class="c" x="418" y="82" rx="2" ry="2"/><rect class="c" x="418" y="98" rx="2" ry="2"/><rect class="c" x="434" y="2" rx="2" ry="2"/><rect class="c" x="434" y="18" rx="2" ry="2"/><rect class="c" x="434" y="34" rx="2" ry="2"/><rect class="c" x="434" y="50" rx="2" ry="2"/><rect class="c" x="434" y="66" rx="2" ry="2"/><rect class="c" x="434" y="82" rx="2" ry="2"/><rect class="c" x="434" y="98" rx="2" ry="2"/><rect class="c" x="450" y="2" rx="2" ry="2"/><rect class="c" x="450" y="18" rx="2" ry="2"/><rect class="c" x="450" y="34" rx="2" ry="2"/><rect class="c" x="450" y="50" rx="2" ry="2"/><rect class="c" x="450" y="66" rx="2" ry="2"/><rect class="c" x="450" y="82" rx="2" ry="2"/><rect class="c" x="450" y="98" rx="2" ry="2"/><rect class="c" x="466" y="2" rx="2" ry="2"/><rect class="c" x="466" y="18" rx="2" ry="2"/><rect class="c" x="466" y="34" rx="2" ry="2"/><rect class="c" x="466" y="50" rx="2" ry="2"/><rect class="c" x="466" y="66" rx="2" ry="2"/><rect class="c" x="466" y="82" rx="2" ry="2"/><rect class="c" x="466" y="98" rx="2" ry="2"/><rect class="c" x="482" y="2" rx="2" ry="2"/><rect class="c" x="482" y="18" rx="2" ry="2"/><rect class="c" x="482" y="34" rx="2" ry="2"/><rect class="c" x="482" y="50" rx="2" ry="2"/><rect class="c" x="482" y="66" rx="2" ry="2"/><rect class="c" x="482" y="82" rx="2" ry="2"/><rect class="c" x="482" y="98" rx="2" ry="2"/><rect class="c" x="498" y="2" rx="2" ry="2"/><rect class="c" x="498" y="18" rx="2" ry="2"/><rect class="c" x="498" y="34" rx="2" ry="2"/><rect class="c" x="498" y="50" rx="2" ry="2"/><rect class="c" x="498" y="66" rx="2" ry="2"/><rect class="c" x="498" y="82" rx="2" ry="2"/><rect class="c" x="498" y="98" rx="2" ry="2"/><rect class="c" x="514" y="2" rx="2" ry="2"/><rect class="c" x="514" y="18" rx="2" ry="2"/><rect class="c" x="514" y="34" rx="2" ry="2"/><rect class="c" x="514" y="50" rx="2" ry="2"/><rect class="c" x="514" y="66" rx="2" ry="2"/><rect class="c" x="514" y="82" rx="2" ry="2"/><rect class="c" x="514" y="98" rx="2" ry="2"/><rect class="c" x="530" y="2" rx="2" ry="2"/><rect class="c" x="530" y="18" rx="2" ry="2"/><rect class="c" x="530" y="34" rx="2" ry="2"/><rect class="c" x="530" y="50" rx="2" ry="2"/><rect class="c" x="530" y="66" rx="2" ry="2"/><rect class="c" x="530" y="82" rx="2" ry="2"/><rect class="c" x="530" y="98" rx="2" ry="2"/><rect class="c" x="546" y="2" rx="2" ry="2"/><rect class="c" x="546" y="18" rx="2" ry="2"/><rect class="c" x="546" y="34" rx="2" ry="2"/><rect class="c" x="546" y="50" rx="2" ry="2"/><rect class="c" x="546" y="66" rx="2" ry="2"/><rect class="c" x="546" y="82" rx="2" ry="2"/><rect class="c c1" x="546" y="98" rx="2" ry="2"/><rect class="c" x="562" y="2" rx="2" ry="2"/><rect class="c" x="562" y="18" rx="2" ry="2"/><rect class="c" x="562" y="34" rx="2" ry="2"/><rect class="c" x="562" y="50" rx="2" ry="2"/><rect class="c" x="562" y="66" rx="2" ry="2"/><rect class="c" x="562" y="82" rx="2" ry="2"/><rect class="c" x="562" y="98" rx="2" ry="2"/><rect class="c" x="578" y="2" rx="2" ry="2"/><rect class="c" x="578" y="18" rx="2" ry="2"/><rect class="c" x="578" y="34" rx="2" ry="2"/><rect class="c" x="578" y="50" rx="2" ry="2"/><rect class="c" x="578" y="66" rx="2" ry="2"/><rect class="c" x="578" y="82" rx="2" ry="2"/><rect class="c" x="578" y="98" rx="2" ry="2"/><rect class="c" x="594" y="2" rx="2" ry="2"/><rect class="c" x="594" y="18" rx="2" ry="2"/><rect class="c" x="594" y="34" rx="2" ry="2"/><rect class="c" x="594" y="50" rx="2" ry="2"/><rect class="c" x="594" y="66" rx="2" ry="2"/><rect class="c" x="594" y="82" rx="2" ry="2"/><rect class="c" x="594" y="98" rx="2" ry="2"/><rect class="c" x="610" y="2" rx="2" ry="2"/><rect class="c" x="610" y="18" rx="2" ry="2"/><rect class="c" x="610" y="34" rx="2" ry="2"/><rect class="c" x="610" y="50" rx="2" ry="2"/><rect class="c" x="610" y="66" rx="2" ry="2"/><rect class="c" x="610" y="82" rx="2" ry="2"/><rect class="c" x="610" y="98" rx="2" ry="2"/><rect class="c" x="626" y="2" rx="2" ry="2"/><rect class="c" x="626" y="18" rx="2" ry="2"/><rect class="c" x="626" y="34" rx="2" ry="2"/><rect class="c" x="626" y="50" rx="2" ry="2"/><rect class="c" x="626" y="66" rx="2" ry="2"/><rect class="c" x="626" y="82" rx="2" ry="2"/><rect class="c" x="626" y="98" rx="2" ry="2"/><rect class="c" x="642" y="2" rx="2" ry="2"/><rect class="c" x="642" y="18" rx="2" ry="2"/><rect class="c" x="642" y="34" rx="2" ry="2"/><rect class="c" x="642" y="50" rx="2" ry="2"/><rect class="c" x="642" y="66" rx="2" ry="2"/><rect class="c" x="642" y="82" rx="2" ry="2"/><rect class="c" x="642" y="98" rx="2" ry="2"/><rect class="c" x="658" y="2" rx="2" ry="2"/><rect class="c" x="658" y="18" rx="2" ry="2"/><rect class="c" x="658" y="34" rx="2" ry="2"/><rect class="c" x="658" y="50" rx="2" ry="2"/><rect class="c" x="658" y="66" rx="2" ry="2"/><rect class="c" x="658" y="82" rx="2" ry="2"/><rect class="c" x="658" y="98" rx="2" ry="2"/><rect class="c" x="674" y="2" rx="2" ry="2"/><rect class="c" x="674" y="18" rx="2" ry="2"/><rect class="c" x="674" y="34" rx="2" ry="2"/><rect class="c" x="674" y="50" rx="2" ry="2"/><rect class="c" x="674" y="66" rx="2" ry="2"/><rect class="c" x="674" y="82" rx="2" ry="2"/><rect class="c" x="674" y="98" rx="2" ry="2"/><rect class="c" x="690" y="2" rx="2" ry="2"/><rect class="c" x="690" y="18" rx="2" ry="2"/><rect class="c" x="690" y="34" rx="2" ry="2"/><rect class="c" x="690" y="50" rx="2" ry="2"/><rect class="c" x="690" y="66" rx="2" ry="2"/><rect class="c" x="690" y="82" rx="2" ry="2"/><rect class="c" x="690" y="98" rx="2" ry="2"/><rect class="c" x="706" y="2" rx="2" ry="2"/><rect class="c" x="706" y="18" rx="2" ry="2"/><rect class="c" x="706" y="34" rx="2" ry="2"/><rect class="c" x="706" y="50" rx="2" ry="2"/><rect class="c" x="706" y="66" rx="2" ry="2"/><rect class="c" x="706" y="82" rx="2" ry="2"/><rect class="c" x="706" y="98" rx="2" ry="2"/><rect class="c" x="722" y="2" rx="2" ry="2"/><rect class="c" x="722" y="18" rx="2" ry="2"/><rect class="c" x="722" y="34" rx="2" ry="2"/><rect class="c" x="722" y="50" rx="2" ry="2"/><rect class="c" x="722" y="66" rx="2" ry="2"/><rect class="c" x="722" y="82" rx="2" ry="2"/><rect class="c" x="722" y="98" rx="2" ry="2"/><rect class="c" x="738" y="2" rx="2" ry="2"/><rect class="c" x="738" y="18" rx="2" ry="2"/><rect class="c" x="738" y="34" rx="2" ry="2"/><rect class="c" x="738" y="50" rx="2" ry="2"/><rect class="c" x="738" y="66" rx="2" ry="2"/><rect class="c c2" x="738" y="82" rx="2" ry="2"/><rect class="c c3" x="738" y="98" rx="2" ry="2"/><rect class="c" x="754" y="2" rx="2" ry="2"/><rect class="c" x="754" y="18" rx="2" ry="2"/><rect class="c" x="754" y="34" rx="2" ry="2"/><rect class="c" x="754" y="50" rx="2" ry="2"/><rect class="c" x="754" y="66" rx="2" ry="2"/><rect class="c" x="754" y="82" rx="2" ry="2"/><rect class="c" x="754" y="98" rx="2" ry="2"/><rect class="c" x="770" y="2" rx="2" ry="2"/><rect class="c" x="770" y="18" rx="2" ry="2"/><rect class="c" x="770" y="34" rx="2" ry="2"/><rect class="c" x="770" y="50" rx="2" ry="2"/><rect class="c" x="770" y="66" rx="2" ry="2"/><rect class="c" x="770" y="82" rx="2" ry="2"/><rect class="c" x="770" y="98" rx="2" ry="2"/><rect class="c" x="786" y="2" rx="2" ry="2"/><rect class="c" x="786" y="18" rx="2" ry="2"/><rect class="c c4" x="786" y="34" rx="2" ry="2"/><rect class="c c5" x="786" y="50" rx="2" ry="2"/><rect class="c c6" x="786" y="66" rx="2" ry="2"/><rect class="c c7" x="786" y="82" rx="2" ry="2"/><rect class="c c8" x="786" y="98" rx="2" ry="2"/><rect class="c" x="802" y="2" rx="2" ry="2"/><rect class="c c9" x="802" y="18" rx="2" ry="2"/><rect class="c ca" x="802" y="34" rx="2" ry="2"/><rect class="c cb" x="802" y="50" rx="2" ry="2"/><rect class="c cc" x="802" y="66" rx="2" ry="2"/><rect class="c" x="802" y="82" rx="2" ry="2"/><rect class="c" x="802" y="98" rx="2" ry="2"/><rect class="c cd" x="818" y="2" rx="2" ry="2"/><rect class="c ce" x="818" y="18" rx="2" ry="2"/><rect class="c cf" x="818" y="34" rx="2" ry="2"/><rect class="c" x="818" y="50" rx="2" ry="2"/><rect class="c cg" x="818" y="66" rx="2" ry="2"/><rect class="c ch" x="818" y="82" rx="2" ry="2"/><rect class="c" x="818" y="98" rx="2" ry="2"/><rect class="c" x="834" y="2" rx="2" ry="2"/><rect class="c" x="834" y="18" rx="2" ry="2"/><rect class="u u0" height="12" width="518.8" x="0.0" y="144"/><rect class="u u1" height="12" width="236.2" x="518.2" y="144"/><rect class="u u2" height="12" width="94.8" x="753.8" y="144"/><rect class="s s0" x="0.8" y="0.8" width="14.4" height="14.4" rx="4.5" ry="4.5"/><rect class="s s1" x="1.8" y="1.8" width="12.3" height="12.3" rx="4.1" ry="4.1"/><rect class="s s2" x="2.6" y="2.6" width="10.8" height="10.8" rx="3.6" ry="3.6"/><rect class="s s3" x="3.0" y="3.0" width="9.9" height="9.9" rx="3.3" ry="3.3"/></g></g></svg>