<svg xmlns="http://www.w3.org/2000/svg" width="1180" height="670" viewBox="0 0 1180 670" role="img" aria-label="GitHub streak, stats, languages and contribution snake"><rect x="1" y="1" width="1178" height="668" rx="16" fill="#06080B" stroke="#C8102E" stroke-width="2"/><svg x="16" y="16" width="1148" height="178" preserveAspectRatio="none">
        <style>
            @keyframes currstreak {
                0% { font-size: 3px; opacity: 0.2; }
                80% { font-size: 34px; opacity: 1; }
                100% { font-size: 28px; opacity: 1; }
            }
            @keyframes fadein {
                0% { opacity: 0; }
                100% { opacity: 1; }
            }
        </style>
        <defs>
            <clipPath id='outer_rectangle'>
                <rect width='1180' height='195' rx='4.5'/>
            </clipPath>
            <mask id='mask_out_ring_behind_fire'>
                <rect width='1180' height='195' fill='white'/>
                <ellipse id='mask-ellipse' cx='590' cy='32' rx='13' ry='18' fill='black'/>
            </mask>
            
        </defs>
        <g clip-path='url(#outer_rectangle)'>
            <g style='isolation: isolate'>
                <rect stroke='#000000' stroke-opacity='0' fill='#0b0b0f' rx='4.5' x='0.5' y='0.5' width='1179' height='194'/>
            </g>
            <g style='isolation: isolate'>
                <line x1='393.33333333333' y1='28' x2='393.33333333333' y2='170' vector-effect='non-scaling-stroke' stroke-width='1' stroke='#c8102e' stroke-linejoin='miter' stroke-linecap='square' stroke-miterlimit='3'/>
                <line x1='786.66666666667' y1='28' x2='786.66666666667' y2='170' vector-effect='non-scaling-stroke' stroke-width='1' stroke='#c8102e' stroke-linejoin='miter' stroke-linecap='square' stroke-miterlimit='3'/>
            </g>
            <g style='isolation: isolate'>
                <!-- Total Contributions big number -->
                <g transform='translate(196.66666666667, 48)'>
                    <text x='0' y='32' stroke-width='0' text-anchor='middle' fill='#ffffff' stroke='none' font-family='"Segoe UI", Ubuntu, sans-serif' font-weight='700' font-size='28px' font-style='normal' style='opacity: 0; animation: fadein 0.5s linear forwards 0.6s'>
                        209
                    </text>
                </g>

                <!-- Total Contributions label -->
                <g transform='translate(196.66666666667, 84)'>
                    <text x='0' y='32' stroke-width='0' text-anchor='middle' fill='#a8a8b0' stroke='none' font-family='"Segoe UI", Ubuntu, sans-serif' font-weight='400' font-size='14px' font-style='normal' style='opacity: 0; animation: fadein 0.5s linear forwards 0.7s'>
                        Total Contributions
                    </text>
                </g>

                <!-- Total Contributions range -->
                <g transform='translate(196.66666666667, 114)'>
                    <text x='0' y='32' stroke-width='0' text-anchor='middle' fill='#777b85' stroke='none' font-family='"Segoe UI", Ubuntu, sans-serif' font-weight='400' font-size='12px' font-style='normal' style='opacity: 0; animation: fadein 0.5s linear forwards 0.8s'>
                        Aug 30, 2025 - Present
                    </text>
                </g>
            </g>
            <g style='isolation: isolate'>
                <!-- Current Streak label -->
                <g transform='translate(590, 108)'>
                    <text x='0' y='32' stroke-width='0' text-anchor='middle' fill='#ffffff' stroke='none' font-family='"Segoe UI", Ubuntu, sans-serif' font-weight='700' font-size='14px' font-style='normal' style='opacity: 0; animation: fadein 0.5s linear forwards 0.9s'>
                        Current Streak
                    </text>
                </g>

                <!-- Current Streak range -->
                <g transform='translate(590, 145)'>
                    <text x='0' y='21' stroke-width='0' text-anchor='middle' fill='#777b85' stroke='none' font-family='"Segoe UI", Ubuntu, sans-serif' font-weight='400' font-size='12px' font-style='normal' style='opacity: 0; animation: fadein 0.5s linear forwards 0.9s'>
                        Sep 7 - Sep 9
                    </text>
                </g>

                <!-- Ring around number -->
                <g mask='url(#mask_out_ring_behind_fire)'>
                    <circle cx='590' cy='71' r='40' fill='none' stroke='#c8102e' stroke-width='5' style='opacity: 0; animation: fadein 0.5s linear forwards 0.4s'></circle>
                </g>
                <!-- Fire icon -->
                <g transform='translate(590, 19.5)' stroke-opacity='0' style='opacity: 0; animation: fadein 0.5s linear forwards 0.6s'>
                    <path d='M -12 -0.5 L 15 -0.5 L 15 23.5 L -12 23.5 L -12 -0.5 Z' fill='none'/>
                    <path d='M 1.5 0.67 C 1.5 0.67 2.24 3.32 2.24 5.47 C 2.24 7.53 0.89 9.2 -1.17 9.2 C -3.23 9.2 -4.79 7.53 -4.79 5.47 L -4.76 5.11 C -6.78 7.51 -8 10.62 -8 13.99 C -8 18.41 -4.42 22 0 22 C 4.42 22 8 18.41 8 13.99 C 8 8.6 5.41 3.79 1.5 0.67 Z M -0.29 19 C -2.07 19 -3.51 17.6 -3.51 15.86 C -3.51 14.24 -2.46 13.1 -0.7 12.74 C 1.07 12.38 2.9 11.53 3.92 10.16 C 4.31 11.45 4.51 12.81 4.51 14.2 C 4.51 16.85 2.36 19 -0.29 19 Z' fill='#d4af37' stroke-opacity='0'/>
                </g>

                <!-- Current Streak big number -->
                <g transform='translate(590, 48)'>
                    <text x='0' y='32' stroke-width='0' text-anchor='middle' fill='#ffffff' stroke='none' font-family='"Segoe UI", Ubuntu, sans-serif' font-weight='700' font-size='28px' font-style='normal' style='animation: currstreak 0.6s linear forwards'>
                        3
                    </text>
                </g>

            </g>
            <g style='isolation: isolate'>
                <!-- Longest Streak big number -->
                <g transform='translate(983.33333333333, 48)'>
                    <text x='0' y='32' stroke-width='0' text-anchor='middle' fill='#ffffff' stroke='none' font-family='"Segoe UI", Ubuntu, sans-serif' font-weight='700' font-size='28px' font-style='normal' style='opacity: 0; animation: fadein 0.5s linear forwards 1.2s'>
                        5
                    </text>
                </g>

                <!-- Longest Streak label -->
                <g transform='translate(983.33333333333, 84)'>
                    <text x='0' y='32' stroke-width='0' text-anchor='middle' fill='#a8a8b0' stroke='none' font-family='"Segoe UI", Ubuntu, sans-serif' font-weight='400' font-size='14px' font-style='normal' style='opacity: 0; animation: fadein 0.5s linear forwards 1.3s'>
                        Longest Streak
                    </text>
                </g>

                <!-- Longest Streak range -->
                <g transform='translate(983.33333333333, 114)'>
                    <text x='0' y='32' stroke-width='0' text-anchor='middle' fill='#777b85' stroke='none' font-family='"Segoe UI", Ubuntu, sans-serif' font-weight='400' font-size='12px' font-style='normal' style='opacity: 0; animation: fadein 0.5s linear forwards 1.4s'>
                        Sep 1 - Sep 5
                    </text>
                </g>
            </g>
            
        </g>
    </svg><svg x="26" y="202" width="550" height="240" preserveAspectRatio="none"><rect width="500" height="240" rx="14" fill="#0B0B0F"/><rect x="1" y="1" width="498" height="238" rx="13" fill="#111116" stroke="#3B1118"/><text x="24" y="32" fill="#C8102E" font-size="13" font-weight="700" font-family="ui-monospace,SFMono-Regular,Menlo,monospace">GITHUB STATS</text><path d="M150 28 H476" stroke="#3B1118" stroke-dasharray="2 7"/><text x="24" y="75" fill="#A8A8B0" font-size="11" font-family="ui-monospace,SFMono-Regular,Menlo,monospace">Repositories</text><text x="24" y="100" fill="#F5F5F5" font-size="22" font-weight="700" font-family="ui-monospace,SFMono-Regular,Menlo,monospace">2</text><text x="260" y="75" fill="#A8A8B0" font-size="11" font-family="ui-monospace,SFMono-Regular,Menlo,monospace">Stars</text><text x="260" y="100" fill="#F5F5F5" font-size="22" font-weight="700" font-family="ui-monospace,SFMono-Regular,Menlo,monospace">0</text><text x="24" y="130" fill="#A8A8B0" font-size="11" font-family="ui-monospace,SFMono-Regular,Menlo,monospace">Followers</text><text x="24" y="155" fill="#F5F5F5" font-size="22" font-weight="700" font-family="ui-monospace,SFMono-Regular,Menlo,monospace">4</text><text x="260" y="130" fill="#A8A8B0" font-size="11" font-family="ui-monospace,SFMono-Regular,Menlo,monospace">Commits</text><text x="260" y="155" fill="#F5F5F5" font-size="22" font-weight="700" font-family="ui-monospace,SFMono-Regular,Menlo,monospace">308</text><text x="24" y="185" fill="#A8A8B0" font-size="11" font-family="ui-monospace,SFMono-Regular,Menlo,monospace">Pull Requests</text><text x="24" y="210" fill="#F5F5F5" font-size="22" font-weight="700" font-family="ui-monospace,SFMono-Regular,Menlo,monospace">0</text><text x="260" y="185" fill="#A8A8B0" font-size="11" font-family="ui-monospace,SFMono-Regular,Menlo,monospace">Issues</text><text x="260" y="210" fill="#F5F5F5" font-size="22" font-weight="700" font-family="ui-monospace,SFMono-Regular,Menlo,monospace">0</text><text x="24" y="228" fill="#D4AF37" font-size="9.5" font-family="ui-monospace,SFMono-Regular,Menlo,monospace">generated by GitHub Actions · no external stats host</text></svg><svg x="604" y="202" width="550" height="240" preserveAspectRatio="none"><rect width="500" height="240" rx="14" fill="#0B0B0F"/><rect x="1" y="1" width="498" height="238" rx="13" fill="#111116" stroke="#3B1118"/><text x="24" y="32" fill="#C8102E" font-size="13" font-weight="700" font-family="ui-monospace,SFMono-Regular,Menlo,monospace">TOP LANGUAGES</text><path d="M150 28 H476" stroke="#3B1118" stroke-dasharray="2 7"/><rect x="24.0" y="56" width="452.0" height="12" fill="#C8102E"/><circle cx="28" cy="87" r="4" fill="#C8102E"/><text x="42" y="91" fill="#F5F5F5" font-size="11.5" font-family="ui-monospace,SFMono-Regular,Menlo,monospace">Python</text><text x="450" y="91" text-anchor="end" fill="#A8A8B0" font-size="11.5" font-family="ui-monospace,SFMono-Regular,Menlo,monospace">100.0%</text><text x="24" y="229" fill="#D4AF37" font-size="9.5" font-family="ui-monospace,SFMono-Regular,Menlo,monospace">calculated from GitHub language bytes</text></svg><svg x="26" y="458" width="1128" height="170" preserveAspectRatio="none"><desc>Generated with https://github.com/Platane/snk</desc><style>:root{--cb:#1b1f230a;--cs:#002366;--ce:#26262E;--c0:#26262E;--c1:#5A242D;--c2:#8F1830;--c3:#C8102E;--c4:#D4AF37}.c{shape-rendering:geometricPrecision;fill:var(--ce);stroke-width:1px;stroke:var(--cb);animation:none 17300ms linear infinite;width:12px;height:12px}@keyframes c0{6.93%{fill:var(--c1)}6.95%,100%{fill:var(--ce)}}.c.c0{fill:var(--c1);animation-name:c0}@keyframes c1{50.28%{fill:var(--c2)}50.3%,100%{fill:var(--ce)}}.c.c1{fill:var(--c2);animation-name:c1}@keyframes c2{31.2%{fill:var(--c1)}31.22%,100%{fill:var(--ce)}}.c.c2{fill:var(--c1);animation-name:c2}@keyframes c3{67.62%{fill:var(--c4)}67.64%,100%{fill:var(--ce)}}.c.c3{fill:var(--c4);animation-name:c3}@keyframes c4{61.26%{fill:var(--c3)}61.28%,100%{fill:var(--ce)}}.c.c4{fill:var(--c3);animation-name:c4}@keyframes c5{60.68%{fill:var(--c3)}60.7%,100%{fill:var(--ce)}}.c.c5{fill:var(--c3);animation-name:c5}@keyframes c6{64.73%{fill:var(--c4)}64.75%,100%{fill:var(--ce)}}.c.c6{fill:var(--c4);animation-name:c6}@keyframes c7{65.31%{fill:var(--c4)}65.33%,100%{fill:var(--ce)}}.c.c7{fill:var(--c4);animation-name:c7}@keyframes c8{65.89%{fill:var(--c4)}65.91%,100%{fill:var(--ce)}}.c.c8{fill:var(--c4);animation-name:c8}@keyframes c9{62.42%{fill:var(--c4)}62.44%,100%{fill:var(--ce)}}.c.c9{fill:var(--c4);animation-name:c9}@keyframes ca{61.84%{fill:var(--c4)}61.86%,100%{fill:var(--ce)}}.c.ca{fill:var(--c4);animation-name:ca}@keyframes cb{36.98%{fill:var(--c2)}37%,100%{fill:var(--ce)}}.c.cb{fill:var(--c2);animation-name:cb}.u{transform-origin:0 0;transform:scale(0,1);animation:none linear 17300ms infinite}@keyframes u0{6.93%{transform:scale(0.000,1)}6.95%,31.2%{transform:scale(0.500,1)}31.22%,100%{transform:scale(1.000,1)}}.u.u0{fill:var(--c1);animation-name:u0;transform-origin:0.0px 0}@keyframes u1{36.98%{transform:scale(0.000,1)}37%,50.28%{transform:scale(0.500,1)}50.3%,100%{transform:scale(1.000,1)}}.u.u1{fill:var(--c2);animation-name:u1;transform-origin:141.3px 0}@keyframes u2{60.68%{transform:scale(0.000,1)}60.7%,61.26%{transform:scale(0.500,1)}61.28%,100%{transform:scale(1.000,1)}}.u.u2{fill:var(--c3);animation-name:u2;transform-origin:282.7px 0}@keyframes u3{61.84%{transform:scale(0.000,1)}61.86%,62.42%{transform:scale(0.167,1)}62.44%,64.73%{transform:scale(0.333,1)}64.75%,65.31%{transform:scale(0.500,1)}65.33%,65.89%{transform:scale(0.667,1)}65.91%,67.62%{transform:scale(0.833,1)}67.64%,100%{transform:scale(1.000,1)}}.u.u3{fill:var(--c4);animation-name:u3;transform-origin:424.0px 0}.s{shape-rendering:geometricPrecision;fill:var(--cs);animation:none linear 17300ms infinite}@keyframes s0{0%,99.42%{transform:translate(0px,-16px)}0.58%{transform:translate(0px,0px)}4.62%{transform:translate(112px,0px)}6.94%{transform:translate(112px,64px)}30.64%{transform:translate(768px,64px)}31.21%{transform:translate(768px,80px)}32.37%,58.96%{transform:translate(800px,80px)}33.53%{transform:translate(800px,112px)}34.68%,40.46%{transform:translate(832px,112px)}36.99%{transform:translate(832px,48px)}37.57%{transform:translate(848px,48px)}38.15%{transform:translate(848px,64px)}38.73%{transform:translate(832px,64px)}43.35%{transform:translate(752px,112px)}43.93%{transform:translate(752px,96px)}50.29%{transform:translate(576px,96px)}50.87%{transform:translate(576px,80px)}60.12%{transform:translate(800px,48px)}60.69%{transform:translate(816px,48px)}61.27%{transform:translate(816px,32px)}61.85%{transform:translate(832px,32px)}62.43%{transform:translate(832px,16px)}63.01%{transform:translate(816px,16px)}65.9%{transform:translate(816px,96px)}83.24%{transform:translate(336px,96px)}84.97%{transform:translate(336px,48px)}91.91%{transform:translate(144px,48px)}92.49%{transform:translate(144px,32px)}94.8%{transform:translate(80px,32px)}95.95%{transform:translate(80px,0px)}96.53%{transform:translate(64px,0px)}97.11%{transform:translate(64px,-16px)}}.s.s0{transform:translate(0px,-16px);animation-name:s0}@keyframes s1{0%,99.42%{transform:translate(16px,-16px)}0.58%{transform:translate(0px,-16px)}1.16%{transform:translate(0px,0px)}5.2%{transform:translate(112px,0px)}7.51%{transform:translate(112px,64px)}31.21%{transform:translate(768px,64px)}31.79%{transform:translate(768px,80px)}32.95%,59.54%{transform:translate(800px,80px)}34.1%{transform:translate(800px,112px)}35.26%,41.04%{transform:translate(832px,112px)}37.57%{transform:translate(832px,48px)}38.15%{transform:translate(848px,48px)}38.73%{transform:translate(848px,64px)}39.31%{transform:translate(832px,64px)}43.93%{transform:translate(752px,112px)}44.51%{transform:translate(752px,96px)}50.87%{transform:translate(576px,96px)}51.45%{transform:translate(576px,80px)}60.69%{transform:translate(800px,48px)}61.27%{transform:translate(816px,48px)}61.85%{transform:translate(816px,32px)}62.43%{transform:translate(832px,32px)}63.01%{transform:translate(832px,16px)}63.58%{transform:translate(816px,16px)}66.47%{transform:translate(816px,96px)}83.82%{transform:translate(336px,96px)}85.55%{transform:translate(336px,48px)}92.49%{transform:translate(144px,48px)}93.06%{transform:translate(144px,32px)}95.38%{transform:translate(80px,32px)}96.53%{transform:translate(80px,0px)}97.11%{transform:translate(64px,0px)}97.69%{transform:translate(64px,-16px)}}.s.s1{transform:translate(16px,-16px);animation-name:s1}@keyframes s2{0%,99.42%{transform:translate(32px,-16px)}1.16%{transform:translate(0px,-16px)}1.73%{transform:translate(0px,0px)}5.78%{transform:translate(112px,0px)}8.09%{transform:translate(112px,64px)}31.79%{transform:translate(768px,64px)}32.37%{transform:translate(768px,80px)}33.53%,60.12%{transform:translate(800px,80px)}34.68%{transform:translate(800px,112px)}35.84%,41.62%{transform:translate(832px,112px)}38.15%{transform:translate(832px,48px)}38.73%{transform:translate(848px,48px)}39.31%{transform:translate(848px,64px)}39.88%{transform:translate(832px,64px)}44.51%{transform:translate(752px,112px)}45.09%{transform:translate(752px,96px)}51.45%{transform:translate(576px,96px)}52.02%{transform:translate(576px,80px)}61.27%{transform:translate(800px,48px)}61.85%{transform:translate(816px,48px)}62.43%{transform:translate(816px,32px)}63.01%{transform:translate(832px,32px)}63.58%{transform:translate(832px,16px)}64.16%{transform:translate(816px,16px)}67.05%{transform:translate(816px,96px)}84.39%{transform:translate(336px,96px)}86.13%{transform:translate(336px,48px)}93.06%{transform:translate(144px,48px)}93.64%{transform:translate(144px,32px)}95.95%{transform:translate(80px,32px)}97.11%{transform:translate(80px,0px)}97.69%{transform:translate(64px,0px)}98.27%{transform:translate(64px,-16px)}}.s.s2{transform:translate(32px,-16px);animation-name:s2}@keyframes s3{0%,99.42%{transform:translate(48px,-16px)}1.73%{transform:translate(0px,-16px)}2.31%{transform:translate(0px,0px)}6.36%{transform:translate(112px,0px)}8.67%{transform:translate(112px,64px)}32.37%{transform:translate(768px,64px)}32.95%{transform:translate(768px,80px)}34.1%,60.69%{transform:translate(800px,80px)}35.26%{transform:translate(800px,112px)}36.42%,42.2%{transform:translate(832px,112px)}38.73%{transform:translate(832px,48px)}39.31%{transform:translate(848px,48px)}39.88%{transform:translate(848px,64px)}40.46%{transform:translate(832px,64px)}45.09%{transform:translate(752px,112px)}45.66%{transform:translate(752px,96px)}52.02%{transform:translate(576px,96px)}52.6%{transform:translate(576px,80px)}61.85%{transform:translate(800px,48px)}62.43%{transform:translate(816px,48px)}63.01%{transform:translate(816px,32px)}63.58%{transform:translate(832px,32px)}64.16%{transform:translate(832px,16px)}64.74%{transform:translate(816px,16px)}67.63%{transform:translate(816px,96px)}84.97%{transform:translate(336px,96px)}86.71%{transform:translate(336px,48px)}93.64%{transform:translate(144px,48px)}94.22%{transform:translate(144px,32px)}96.53%{transform:translate(80px,32px)}97.69%{transform:translate(80px,0px)}98.27%{transform:translate(64px,0px)}98.84%{transform:translate(64px,-16px)}}.s.s3{transform:translate(48px,-16px);animation-name:s3}</style><rect class="c" x="2" y="2" rx="2" ry="2"/><rect class="c" x="2" y="18" rx="2" ry="2"/><rect class="c" x="2" y="34" rx="2" ry="2"/><rect class="c" x="2" y="50" rx="2" ry="2"/><rect class="c" x="2" y="66" rx="2" ry="2"/><rect class="c" x="2" y="82" rx="2" ry="2"/><rect class="c" x="2" y="98" rx="2" ry="2"/><rect class="c" x="18" y="2" rx="2" ry="2"/><rect class="c" x="18" y="18" rx="2" ry="2"/><rect class="c" x="18" y="34" rx="2" ry="2"/><rect class="c" x="18" y="50" rx="2" ry="2"/><rect class="c" x="18" y="66" rx="2" ry="2"/><rect class="c" x="18" y="82" rx="2" ry="2"/><rect class="c" x="18" y="98" rx="2" ry="2"/><rect class="c" x="34" y="2" rx="2" ry="2"/><rect class="c" x="34" y="18" rx="2" ry="2"/><rect class="c" x="34" y="34" rx="2" ry="2"/><rect class="c" x="34" y="50" rx="2" ry="2"/><rect class="c" x="34" y="66" rx="2" ry="2"/><rect class="c" x="34" y="82" rx="2" ry="2"/><rect class="c" x="34" y="98" rx="2" ry="2"/><rect class="c" x="50" y="2" rx="2" ry="2"/><rect class="c" x="50" y="18" rx="2" ry="2"/><rect class="c" x="50" y="34" rx="2" ry="2"/><rect class="c" x="50" y="50" rx="2" ry="2"/><rect class="c" x="50" y="66" rx="2" ry="2"/><rect class="c" x="50" y="82" rx="2" ry="2"/><rect class="c" x="50" y="98" rx="2" ry="2"/><rect class="c" x="66" y="2" rx="2" ry="2"/><rect class="c" x="66" y="18" rx="2" ry="2"/><rect class="c" x="66" y="34" rx="2" ry="2"/><rect class="c" x="66" y="50" rx="2" ry="2"/><rect class="c" x="66" y="66" rx="2" ry="2"/><rect class="c" x="66" y="82" rx="2" ry="2"/><rect class="c" x="66" y="98" rx="2" ry="2"/><rect class="c" x="82" y="2" rx="2" ry="2"/><rect class="c" x="82" y="18" rx="2" ry="2"/><rect class="c" x="82" y="34" rx="2" ry="2"/><rect class="c" x="82" y="50" rx="2" ry="2"/><rect class="c" x="82" y="66" rx="2" ry="2"/><rect class="c" x="82" y="82" rx="2" ry="2"/><rect class="c" x="82" y="98" rx="2" ry="2"/><rect class="c" x="98" y="2" rx="2" ry="2"/><rect class="c" x="98" y="18" rx="2" ry="2"/><rect class="c" x="98" y="34" rx="2" ry="2"/><rect class="c" x="98" y="50" rx="2" ry="2"/><rect class="c" x="98" y="66" rx="2" ry="2"/><rect class="c" x="98" y="82" rx="2" ry="2"/><rect class="c" x="98" y="98" rx="2" ry="2"/><rect class="c" x="114" y="2" rx="2" ry="2"/><rect class="c" x="114" y="18" rx="2" ry="2"/><rect class="c" x="114" y="34" rx="2" ry="2"/><rect class="c" x="114" y="50" rx="2" ry="2"/><rect class="c c0" x="114" y="66" rx="2" ry="2"/><rect class="c" x="114" y="82" rx="2" ry="2"/><rect class="c" x="114" y="98" rx="2" ry="2"/><rect class="c" x="130" y="2" rx="2" ry="2"/><rect class="c" x="130" y="18" rx="2" ry="2"/><rect class="c" x="130" y="34" rx="2" ry="2"/><rect class="c" x="130" y="50" rx="2" ry="2"/><rect class="c" x="130" y="66" rx="2" ry="2"/><rect class="c" x="130" y="82" rx="2" ry="2"/><rect class="c" x="130" y="98" rx="2" ry="2"/><rect class="c" x="146" y="2" rx="2" ry="2"/><rect class="c" x="146" y="18" rx="2" ry="2"/><rect class="c" x="146" y="34" rx="2" ry="2"/><rect class="c" x="146" y="50" rx="2" ry="2"/><rect class="c" x="146" y="66" rx="2" ry="2"/><rect class="c" x="146" y="82" rx="2" ry="2"/><rect class="c" x="146" y="98" rx="2" ry="2"/><rect class="c" x="162" y="2" rx="2" ry="2"/><rect class="c" x="162" y="18" rx="2" ry="2"/><rect class="c" x="162" y="34" rx="2" ry="2"/><rect class="c" x="162" y="50" rx="2" ry="2"/><rect class="c" x="162" y="66" rx="2" ry="2"/><rect class="c" x="162" y="82" rx="2" ry="2"/><rect class="c" x="162" y="98" rx="2" ry="2"/><rect class="c" x="178" y="2" rx="2" ry="2"/><rect class="c" x="178" y="18" rx="2" ry="2"/><rect class="c" x="178" y="34" rx="2" ry="2"/><rect class="c" x="178" y="50" rx="2" ry="2"/><rect class="c" x="178" y="66" rx="2" ry="2"/><rect class="c" x="178" y="82" rx="2" ry="2"/><rect class="c" x="178" y="98" rx="2" ry="2"/><rect class="c" x="194" y="2" rx="2" ry="2"/><rect class="c" x="194" y="18" rx="2" ry="2"/><rect class="c" x="194" y="34" rx="2" ry="2"/><rect class="c" x="194" y="50" rx="2" ry="2"/><rect class="c" x="194" y="66" rx="2" ry="2"/><rect class="c" x="194" y="82" rx="2" ry="2"/><rect class="c" x="194" y="98" rx="2" ry="2"/><rect class="c" x="210" y="2" rx="2" ry="2"/><rect class="c" x="210" y="18" rx="2" ry="2"/><rect class="c" x="210" y="34" rx="2" ry="2"/><rect class="c" x="210" y="50" rx="2" ry="2"/><rect class="c" x="210" y="66" rx="2" ry="2"/><rect class="c" x="210" y="82" rx="2" ry="2"/><rect class="c" x="210" y="98" rx="2" ry="2"/><rect class="c" x="226" y="2" rx="2" ry="2"/><rect class="c" x="226" y="18" rx="2" ry="2"/><rect class="c" x="226" y="34" rx="2" ry="2"/><rect class="c" x="226" y="50" rx="2" ry="2"/><rect class="c" x="226" y="66" rx="2" ry="2"/><rect class="c" x="226" y="82" rx="2" ry="2"/><rect class="c" x="226" y="98" rx="2" ry="2"/><rect class="c" x="242" y="2" rx="2" ry="2"/><rect class="c" x="242" y="18" rx="2" ry="2"/><rect class="c" x="242" y="34" rx="2" ry="2"/><rect class="c" x="242" y="50" rx="2" ry="2"/><rect class="c" x="242" y="66" rx="2" ry="2"/><rect class="c" x="242" y="82" rx="2" ry="2"/><rect class="c" x="242" y="98" rx="2" ry="2"/><rect class="c" x="258" y="2" rx="2" ry="2"/><rect class="c" x="258" y="18" rx="2" ry="2"/><rect class="c" x="258" y="34" rx="2" ry="2"/><rect class="c" x="258" y="50" rx="2" ry="2"/><rect class="c" x="258" y="66" rx="2" ry="2"/><rect class="c" x="258" y="82" rx="2" ry="2"/><rect class="c" x="258" y="98" rx="2" ry="2"/><rect class="c" x="274" y="2" rx="2" ry="2"/><rect class="c" x="274" y="18" rx="2" ry="2"/><rect class="c" x="274" y="34" rx="2" ry="2"/><rect class="c" x="274" y="50" rx="2" ry="2"/><rect class="c" x="274" y="66" rx="2" ry="2"/><rect class="c" x="274" y="82" rx="2" ry="2"/><rect class="c" x="274" y="98" rx="2" ry="2"/><rect class="c" x="290" y="2" rx="2" ry="2"/><rect class="c" x="290" y="18" rx="2" ry="2"/><rect class="c" x="290" y="34" rx="2" ry="2"/><rect class="c" x="290" y="50" rx="2" ry="2"/><rect class="c" x="290" y="66" rx="2" ry="2"/><rect class="c" x="290" y="82" rx="2" ry="2"/><rect class="c" x="290" y="98" rx="2" ry="2"/><rect class="c" x="306" y="2" rx="2" ry="2"/><rect class="c" x="306" y="18" rx="2" ry="2"/><rect class="c" x="306" y="34" rx="2" ry="2"/><rect class="c" x="306" y="50" rx="2" ry="2"/><rect class="c" x="306" y="66" rx="2" ry="2"/><rect class="c" x="306" y="82" rx="2" ry="2"/><rect class="c" x="306" y="98" rx="2" ry="2"/><rect class="c" x="322" y="2" rx="2" ry="2"/><rect class="c" x="322" y="18" rx="2" ry="2"/><rect class="c" x="322" y="34" rx="2" ry="2"/><rect class="c" x="322" y="50" rx="2" ry="2"/><rect class="c" x="322" y="66" rx="2" ry="2"/><rect class="c" x="322" y="82" rx="2" ry="2"/><rect class="c" x="322" y="98" rx="2" ry="2"/><rect class="c" x="338" y="2" rx="2" ry="2"/><rect class="c" x="338" y="18" rx="2" ry="2"/><rect class="c" x="338" y="34" rx="2" ry="2"/><rect class="c" x="338" y="50" rx="2" ry="2"/><rect class="c" x="338" y="66" rx="2" ry="2"/><rect class="c" x="338" y="82" rx="2" ry="2"/><rect class="c" x="338" y="98" rx="2" ry="2"/><rect class="c" x="354" y="2" rx="2" ry="2"/><rect class="c" x="354" y="18" rx="2" ry="2"/><rect class="c" x="354" y="34" rx="2" ry="2"/><rect class="c" x="354" y="50" rx="2" ry="2"/><rect class="c" x="354" y="66" rx="2" ry="2"/><rect class="c" x="354" y="82" rx="2" ry="2"/><rect class="c" x="354" y="98" rx="2" ry="2"/><rect class="c" x="370" y="2" rx="2" ry="2"/><rect class="c" x="370" y="18" rx="2" ry="2"/><rect class="c" x="370" y="34" rx="2" ry="2"/><rect class="c" x="370" y="50" rx="2" ry="2"/><rect class="c" x="370" y="66" rx="2" ry="2"/><rect class="c" x="370" y="82" rx="2" ry="2"/><rect class="c" x="370" y="98" rx="2" ry="2"/><rect class="c" x="386" y="2" rx="2" ry="2"/><rect class="c" x="386" y="18" rx="2" ry="2"/><rect class="c" x="386" y="34" rx="2" ry="2"/><rect class="c" x="386" y="50" rx="2" ry="2"/><rect class="c" x="386" y="66" rx="2" ry="2"/><rect class="c" x="386" y="82" rx="2" ry="2"/><rect class="c" x="386" y="98" rx="2" ry="2"/><rect class="c" x="402" y="2" rx="2" ry="2"/><rect class="c" x="402" y="18" rx="2" ry="2"/><rect class="c" x="402" y="34" rx="2" ry="2"/><rect class="c" x="402" y="50" rx="2" ry="2"/><rect class="c" x="402" y="66" rx="2" ry="2"/><rect class="c" x="402" y="82" rx="2" ry="2"/><rect class="c" x="402" y="98" rx="2" ry="2"/><rect class="c" x="418" y="2" rx="2" ry="2"/><rect class="c" x="418" y="18" rx="2" ry="2"/><rect class="c" x="418" y="34" rx="2" ry="2"/><rect class="c" x="418" y="50" rx="2" ry="2"/><rect class="c" x="418" y="66" rx="2" ry="2"/><rect class="c" x="418" y="82" rx="2" ry="2"/><rect class="c" x="418" y="98" rx="2" ry="2"/><rect class="c" x="434" y="2" rx="2" ry="2"/><rect class="c" x="434" y="18" rx="2" ry="2"/><rect class="c" x="434" y="34" rx="2" ry="2"/><rect class="c" x="434" y="50" rx="2" ry="2"/><rect class="c" x="434" y="66" rx="2" ry="2"/><rect class="c" x="434" y="82" rx="2" ry="2"/><rect class="c" x="434" y="98" rx="2" ry="2"/><rect class="c" x="450" y="2" rx="2" ry="2"/><rect class="c" x="450" y="18" rx="2" ry="2"/><rect class="c" x="450" y="34" rx="2" ry="2"/><rect class="c" x="450" y="50" rx="2" ry="2"/><rect class="c" x="450" y="66" rx="2" ry="2"/><rect class="c" x="450" y="82" rx="2" ry="2"/><rect class="c" x="450" y="98" rx="2" ry="2"/><rect class="c" x="466" y="2" rx="2" ry="2"/><rect class="c" x="466" y="18" rx="2" ry="2"/><rect class="c" x="466" y="34" rx="2" ry="2"/><rect class="c" x="466" y="50" rx="2" ry="2"/><rect class="c" x="466" y="66" rx="2" ry="2"/><rect class="c" x="466" y="82" rx="2" ry="2"/><rect class="c" x="466" y="98" rx="2" ry="2"/><rect class="c" x="482" y="2" rx="2" ry="2"/><rect class="c" x="482" y="18" rx="2" ry="2"/><rect class="c" x="482" y="34" rx="2" ry="2"/><rect class="c" x="482" y="50" rx="2" ry="2"/><rect class="c" x="482" y="66" rx="2" ry="2"/><rect class="c" x="482" y="82" rx="2" ry="2"/><rect class="c" x="482" y="98" rx="2" ry="2"/><rect class="c" x="498" y="2" rx="2" ry="2"/><rect class="c" x="498" y="18" rx="2" ry="2"/><rect class="c" x="498" y="34" rx="2" ry="2"/><rect class="c" x="498" y="50" rx="2" ry="2"/><rect class="c" x="498" y="66" rx="2" ry="2"/><rect class="c" x="498" y="82" rx="2" ry="2"/><rect class="c" x="498" y="98" rx="2" ry="2"/><rect class="c" x="514" y="2" rx="2" ry="2"/><rect class="c" x="514" y="18" rx="2" ry="2"/><rect class="c" x="514" y="34" rx="2" ry="2"/><rect class="c" x="514" y="50" rx="2" ry="2"/><rect class="c" x="514" y="66" rx="2" ry="2"/><rect class="c" x="514" y="82" rx="2" ry="2"/><rect class="c" x="514" y="98" rx="2" ry="2"/><rect class="c" x="530" y="2" rx="2" ry="2"/><rect class="c" x="530" y="18" rx="2" ry="2"/><rect class="c" x="530" y="34" rx="2" ry="2"/><rect class="c" x="530" y="50" rx="2" ry="2"/><rect class="c" x="530" y="66" rx="2" ry="2"/><rect class="c" x="530" y="82" rx="2" ry="2"/><rect class="c" x="530" y="98" rx="2" ry="2"/><rect class="c" x="546" y="2" rx="2" ry="2"/><rect class="c" x="546" y="18" rx="2" ry="2"/><rect class="c" x="546" y="34" rx="2" ry="2"/><rect class="c" x="546" y="50" rx="2" ry="2"/><rect class="c" x="546" y="66" rx="2" ry="2"/><rect class="c" x="546" y="82" rx="2" ry="2"/><rect class="c" x="546" y="98" rx="2" ry="2"/><rect class="c" x="562" y="2" rx="2" ry="2"/><rect class="c" x="562" y="18" rx="2" ry="2"/><rect class="c" x="562" y="34" rx="2" ry="2"/><rect class="c" x="562" y="50" rx="2" ry="2"/><rect class="c" x="562" y="66" rx="2" ry="2"/><rect class="c" x="562" y="82" rx="2" ry="2"/><rect class="c" x="562" y="98" rx="2" ry="2"/><rect class="c" x="578" y="2" rx="2" ry="2"/><rect class="c" x="578" y="18" rx="2" ry="2"/><rect class="c" x="578" y="34" rx="2" ry="2"/><rect class="c" x="578" y="50" rx="2" ry="2"/><rect class="c" x="578" y="66" rx="2" ry="2"/><rect class="c" x="578" y="82" rx="2" ry="2"/><rect class="c c1" x="578" y="98" rx="2" ry="2"/><rect class="c" x="594" y="2" rx="2" ry="2"/><rect class="c" x="594" y="18" rx="2" ry="2"/><rect class="c" x="594" y="34" rx="2" ry="2"/><rect class="c" x="594" y="50" rx="2" ry="2"/><rect class="c" x="594" y="66" rx="2" ry="2"/><rect class="c" x="594" y="82" rx="2" ry="2"/><rect class="c" x="594" y="98" rx="2" ry="2"/><rect class="c" x="610" y="2" rx="2" ry="2"/><rect class="c" x="610" y="18" rx="2" ry="2"/><rect class="c" x="610" y="34" rx="2" ry="2"/><rect class="c" x="610" y="50" rx="2" ry="2"/><rect class="c" x="610" y="66" rx="2" ry="2"/><rect class="c" x="610" y="82" rx="2" ry="2"/><rect class="c" x="610" y="98" rx="2" ry="2"/><rect class="c" x="626" y="2" rx="2" ry="2"/><rect class="c" x="626" y="18" rx="2" ry="2"/><rect class="c" x="626" y="34" rx="2" ry="2"/><rect class="c" x="626" y="50" rx="2" ry="2"/><rect class="c" x="626" y="66" rx="2" ry="2"/><rect class="c" x="626" y="82" rx="2" ry="2"/><rect class="c" x="626" y="98" rx="2" ry="2"/><rect class="c" x="642" y="2" rx="2" ry="2"/><rect class="c" x="642" y="18" rx="2" ry="2"/><rect class="c" x="642" y="34" rx="2" ry="2"/><rect class="c" x="642" y="50" rx="2" ry="2"/><rect class="c" x="642" y="66" rx="2" ry="2"/><rect class="c" x="642" y="82" rx="2" ry="2"/><rect class="c" x="642" y="98" rx="2" ry="2"/><rect class="c" x="658" y="2" rx="2" ry="2"/><rect class="c" x="658" y="18" rx="2" ry="2"/><rect class="c" x="658" y="34" rx="2" ry="2"/><rect class="c" x="658" y="50" rx="2" ry="2"/><rect class="c" x="658" y="66" rx="2" ry="2"/><rect class="c" x="658" y="82" rx="2" ry="2"/><rect class="c" x="658" y="98" rx="2" ry="2"/><rect class="c" x="674" y="2" rx="2" ry="2"/><rect class="c" x="674" y="18" rx="2" ry="2"/><rect class="c" x="674" y="34" rx="2" ry="2"/><rect class="c" x="674" y="50" rx="2" ry="2"/><rect class="c" x="674" y="66" rx="2" ry="2"/><rect class="c" x="674" y="82" rx="2" ry="2"/><rect class="c" x="674" y="98" rx="2" ry="2"/><rect class="c" x="690" y="2" rx="2" ry="2"/><rect class="c" x="690" y="18" rx="2" ry="2"/><rect class="c" x="690" y="34" rx="2" ry="2"/><rect class="c" x="690" y="50" rx="2" ry="2"/><rect class="c" x="690" y="66" rx="2" ry="2"/><rect class="c" x="690" y="82" rx="2" ry="2"/><rect class="c" x="690" y="98" rx="2" ry="2"/><rect class="c" x="706" y="2" rx="2" ry="2"/><rect class="c" x="706" y="18" rx="2" ry="2"/><rect class="c" x="706" y="34" rx="2" ry="2"/><rect class="c" x="706" y="50" rx="2" ry="2"/><rect class="c" x="706" y="66" rx="2" ry="2"/><rect class="c" x="706" y="82" rx="2" ry="2"/><rect class="c" x="706" y="98" rx="2" ry="2"/><rect class="c" x="722" y="2" rx="2" ry="2"/><rect class="c" x="722" y="18" rx="2" ry="2"/><rect class="c" x="722" y="34" rx="2" ry="2"/><rect class="c" x="722" y="50" rx="2" ry="2"/><rect class="c" x="722" y="66" rx="2" ry="2"/><rect class="c" x="722" y="82" rx="2" ry="2"/><rect class="c" x="722" y="98" rx="2" ry="2"/><rect class="c" x="738" y="2" rx="2" ry="2"/><rect class="c" x="738" y="18" rx="2" ry="2"/><rect class="c" x="738" y="34" rx="2" ry="2"/><rect class="c" x="738" y="50" rx="2" ry="2"/><rect class="c" x="738" y="66" rx="2" ry="2"/><rect class="c" x="738" y="82" rx="2" ry="2"/><rect class="c" x="738" y="98" rx="2" ry="2"/><rect class="c" x="754" y="2" rx="2" ry="2"/><rect class="c" x="754" y="18" rx="2" ry="2"/><rect class="c" x="754" y="34" rx="2" ry="2"/><rect class="c" x="754" y="50" rx="2" ry="2"/><rect class="c" x="754" y="66" rx="2" ry="2"/><rect class="c" x="754" y="82" rx="2" ry="2"/><rect class="c" x="754" y="98" rx="2" ry="2"/><rect class="c" x="770" y="2" rx="2" ry="2"/><rect class="c" x="770" y="18" rx="2" ry="2"/><rect class="c" x="770" y="34" rx="2" ry="2"/><rect class="c" x="770" y="50" rx="2" ry="2"/><rect class="c" x="770" y="66" rx="2" ry="2"/><rect class="c c2" x="770" y="82" rx="2" ry="2"/><rect class="c c3" x="770" y="98" rx="2" ry="2"/><rect class="c" x="786" y="2" rx="2" ry="2"/><rect class="c" x="786" y="18" rx="2" ry="2"/><rect class="c" x="786" y="34" rx="2" ry="2"/><rect class="c" x="786" y="50" rx="2" ry="2"/><rect class="c" x="786" y="66" rx="2" ry="2"/><rect class="c" x="786" y="82" rx="2" ry="2"/><rect class="c" x="786" y="98" rx="2" ry="2"/><rect class="c" x="802" y="2" rx="2" ry="2"/><rect class="c" x="802" y="18" rx="2" ry="2"/><rect class="c" x="802" y="34" rx="2" ry="2"/><rect class="c" x="802" y="50" rx="2" ry="2"/><rect class="c" x="802" y="66" rx="2" ry="2"/><rect class="c" x="802" y="82" rx="2" ry="2"/><rect class="c" x="802" y="98" rx="2" ry="2"/><rect class="c" x="818" y="2" rx="2" ry="2"/><rect class="c" x="818" y="18" rx="2" ry="2"/><rect class="c c4" x="818" y="34" rx="2" ry="2"/><rect class="c c5" x="818" y="50" rx="2" ry="2"/><rect class="c c6" x="818" y="66" rx="2" ry="2"/><rect class="c c7" x="818" y="82" rx="2" ry="2"/><rect class="c c8" x="818" y="98" rx="2" ry="2"/><rect class="c" x="834" y="2" rx="2" ry="2"/><rect class="c c9" x="834" y="18" rx="2" ry="2"/><rect class="c ca" x="834" y="34" rx="2" ry="2"/><rect class="c cb" x="834" y="50" rx="2" ry="2"/><rect class="u u0" height="12" width="141.9" x="0.0" y="144"/><rect class="u u1" height="12" width="141.9" x="141.3" y="144"/><rect class="u u2" height="12" width="141.9" x="282.7" y="144"/><rect class="u u3" height="12" width="424.6" x="424.0" y="144"/><rect class="s s0" x="0.8" y="0.8" width="14.4" height="14.4" rx="4.5" ry="4.5"/><rect class="s s1" x="1.8" y="1.8" width="12.3" height="12.3" rx="4.1" ry="4.1"/><rect class="s s2" x="2.6" y="2.6" width="10.8" height="10.8" rx="3.6" ry="3.6"/><rect class="s s3" x="3.0" y="3.0" width="9.9" height="9.9" rx="3.3" ry="3.3"/></svg></svg>