<svg xmlns="http://www.w3.org/2000/svg" width="1040" height="72" viewBox="0 0 1040 72" role="img" aria-label="Ishan signature stripe"><rect x="1" y="1" width="1038" height="70" rx="8" fill="#FFFFFF" stroke="#C8102E" stroke-width="2"/><g transform="translate(24 11) scale(.026)" fill="#111111" fill-rule="evenodd"><path d="M 1464,126 1393,247 1421,428 1337,428 1365,246 1295,126 1227,246 1255,428 1171,430 1198,246 1127,125 1059,246 1086,551 1246,553 1247,632 1014,706 1085,598 963,498 1064,149 964,150 899,8 814,150 735,148 659,4 588,147 481,147 652,479 552,636 631,860 535,1028 472,704 562,492 457,396 386,180 335,235 223,202 119,362 2,337 62,572 220,459 343,478 254,600 331,659 354,1246 408,1339 560,1354 537,1691 653,2041 804,2022 907,1933 792,1711 901,1579 775,1290 1185,1680 1187,1291 1081,1242 1089,1102 950,1129 1041,974 1247,1083 1247,1699 1339,1698 1342,1070 1415,837 1346,553 1506,551 1533,247 Z"/><path d="M 1078,797 1092,782 1112,773 1117,773 1127,769 1134,769 1137,767 1173,765 1176,767 1197,769 1218,777 1241,794 1247,806 1247,883 1245,885 1203,883 1163,872 1136,860 1118,849 1102,835 1084,811 Z"/><path d="M 744,470 849,470 850,471 847,482 841,493 841,496 835,507 835,510 826,528 806,577 801,586 797,589 795,589 790,585 784,573 742,473 Z"/><path d="M 898,228 899,229 899,243 898,244 898,253 897,254 897,285 895,288 895,295 893,298 893,302 889,311 885,317 879,323 871,329 863,333 858,333 842,322 838,317 838,309 837,308 838,291 840,288 840,286 842,284 842,282 844,280 844,278 854,264 877,242 895,228 Z"/><path d="M 692,234 698,236 706,241 727,261 735,272 735,274 737,276 737,278 741,284 741,286 743,289 743,292 745,294 745,297 747,300 747,308 745,311 745,314 741,320 734,327 731,329 729,329 724,333 719,333 717,331 715,331 713,329 710,329 708,327 705,326 697,317 692,307 692,304 690,302 690,297 688,294 688,286 686,282 686,241 688,237 Z"/></g><rect x="82" y="10" width="1" height="52" fill="#E6D8DC"/><text x="110" y="44" fill="#C8102E" font-size="20" font-weight="700" font-family="ui-monospace,SFMono-Regular,Menlo,monospace">BUILD • BREAK • DEBUG • LEARN</text><text x="1000" y="44" fill="#C8102E" font-size="20" font-weight="700" text-anchor="end" font-family="ui-monospace,SFMono-Regular,Menlo,monospace">08</text></svg>