<svg xmlns="http://www.w3.org/2000/svg" width="1180" height="610" viewBox="0 0 1180 610"><defs><path id="mark" d="M 1464,126 1393,247 1421,428 1337,428 1365,246 1295,126 1227,246 1255,428 1171,430 1198,246 1127,125 1059,246 1086,551 1246,553 1247,632 1014,706 1085,598 963,498 1064,149 964,150 899,8 814,150 735,148 659,4 588,147 481,147 652,479 552,636 631,860 535,1028 472,704 562,492 457,396 386,180 335,235 223,202 119,362 2,337 62,572 220,459 343,478 254,600 331,659 354,1246 408,1339 560,1354 537,1691 653,2041 804,2022 907,1933 792,1711 901,1579 775,1290 1185,1680 1187,1291 1081,1242 1089,1102 950,1129 1041,974 1247,1083 1247,1699 1339,1698 1342,1070 1415,837 1346,553 1506,551 1533,247 Z" fill-rule="evenodd"/><clipPath id="logoClip"><use href="#mark" transform="translate(131.5 166) scale(.17)"/></clipPath><linearGradient id="shine" x1="0" x2="1"><stop offset="0" stop-color="#fff" stop-opacity="0"/><stop offset=".42" stop-color="#fff" stop-opacity=".05"/><stop offset=".5" stop-color="#fff" stop-opacity=".95"/><stop offset=".58" stop-color="#fff" stop-opacity=".05"/><stop offset="1" stop-color="#fff" stop-opacity="0"/></linearGradient></defs><rect width="1180" height="610" rx="18" fill="#F6F3F3"/><rect x="18" y="18" width="1144" height="574" rx="16" fill="#fff" stroke="#E0C8CE"/><rect x="42" y="42" width="1100" height="44" rx="10" fill="#C8102E"/><circle cx="66" cy="64" r="6" fill="#fff"/><circle cx="86" cy="64" r="6" fill="#fff"/><circle cx="106" cy="64" r="6" fill="#fff"/><text x="134" y="70" fill="#fff" font-size="14" font-family="ui-monospace,SFMono-Regular,Menlo,monospace">Red Devils</text><text x="1070" y="69" fill="#fff" font-size="14" font-weight="700" text-anchor="middle" font-family="ui-monospace,monospace">7</text><text x="60" y="116" fill="#A16D00" font-size="13" font-family="ui-monospace,monospace">VISUAL.MAP</text><text x="504" y="116" fill="#A16D00" font-size="13" font-family="ui-monospace,monospace">SYSTEM.INFO</text><rect x="52" y="130" width="420" height="420" rx="14" fill="#F5F5F5" stroke="#C8102E" stroke-width="2"/><g clip-path="url(#logoClip)"><use href="#mark" transform="translate(131.5 166) scale(.17)" fill="#C8102E"/><rect x="-120" y="110" width="90" height="470" fill="url(#shine)" opacity=".95" transform="skewX(-12)"><animate attributeName="x" values="-120;540;-120" keyTimes="0;.5;1" dur="2.8s" repeatCount="indefinite"/></rect></g><g font-family="ui-monospace,SFMono-Regular,Menlo,monospace" font-size="14" fill="#47505A"><text x="522" y="154">Subject</text><path d="M610 150 H900" stroke="#E1D5D8" stroke-dasharray="2 6"/><text x="930" y="154" fill="#111116" text-anchor="end">ISHAN RAY CHAUDHURI</text><text x="522" y="177">Role</text><path d="M610 173 H900" stroke="#E1D5D8" stroke-dasharray="2 6"/><text x="930" y="177" fill="#111116" text-anchor="end">CSE AND DATA SCIENCE STUDENT</text><text x="522" y="200">Origin</text><path d="M610 196 H900" stroke="#E1D5D8" stroke-dasharray="2 6"/><text x="930" y="200" fill="#111116" text-anchor="end">UNKNOWN</text><text x="522" y="223">Education</text><path d="M610 219 H900" stroke="#E1D5D8" stroke-dasharray="2 6"/><text x="930" y="223" fill="#111116" text-anchor="end">BTECH CSE · VIT CHENNAI</text><path d="M610 242 H900" stroke="#E1D5D8" stroke-dasharray="2 6"/><text x="930" y="246" fill="#111116" text-anchor="end">BS DATA SCIENCE · IIT MADRAS</text><text x="522" y="270">Status</text><path d="M610 266 H900" stroke="#E1D5D8" stroke-dasharray="2 6"/><text x="930" y="270" fill="#111116" text-anchor="end">LEARNING + BUILDING + SHIPPING</text><text x="522" y="303">Core.Lang</text><path d="M610 299 H900" stroke="#E1D5D8" stroke-dasharray="2 6"/><text x="930" y="303" fill="#111116" text-anchor="end">C · C++ · PYTHON · JAVA · R</text><text x="522" y="326">Core.Data</text><path d="M610 322 H900" stroke="#E1D5D8" stroke-dasharray="2 6"/><text x="930" y="326" fill="#111116" text-anchor="end">NUMPY · PANDAS · MATLAB</text><text x="522" y="349">Core.Infra</text><path d="M610 345 H900" stroke="#E1D5D8" stroke-dasharray="2 6"/><text x="930" y="349" fill="#111116" text-anchor="end">DOCKER · WSL · CLOUD · DEVOPS</text></g><rect x="522" y="378" width="408" height="34" rx="17" fill="#C8102E" fill-opacity=".12" stroke="#A16D00" stroke-opacity=".7"/><text x="726" y="400" fill="#A16D00" font-size="14" text-anchor="middle">@ishanraychaudhuri2025</text><text x="522" y="448" fill="#C8102E" font-size="13">TARGET</text><text x="522" y="472" fill="#111116" font-size="15">SOFTWARE · AI/ML · CLOUD · DEVOPS · QUANT · HFT</text><text x="522" y="496" fill="#111116" font-size="15">AUTOMATION · SYSTEM DESIGNS</text></svg>